<svg width="163" height="49" viewBox="0 0 163 49" fill="none" xmlns="http://www.w3.org/2000/svg">
<rect x="1.00001" y="1.22402" width="160.8" height="46.8" rx="13.8" fill="black"/>
<rect x="1.00001" y="1.22402" width="160.8" height="46.8" rx="13.8" stroke="#A6A6A6" stroke-width="1.2"/>
<path d="M98.2311 23.6652V26.4144H96.5078V28.2174H98.2311V34.3433C98.2311 36.4351 99.1774 37.2718 101.558 37.2718C101.976 37.2718 102.375 37.222 102.723 37.1623V35.3793C102.425 35.4091 102.235 35.4291 101.907 35.4291C100.841 35.4291 100.373 34.931 100.373 33.7955V28.2174H102.723V26.4144H100.373V23.6652H98.2311Z" fill="white"/>
<path d="M108.788 37.4213C111.956 37.4213 113.898 35.2996 113.898 31.7834C113.898 28.2871 111.946 26.1554 108.788 26.1554C105.62 26.1554 103.668 28.2871 103.668 31.7834C103.668 35.2996 105.611 37.4213 108.788 37.4213ZM108.788 35.5187C106.925 35.5187 105.879 34.1541 105.879 31.7834C105.879 29.4326 106.925 28.058 108.788 28.058C110.641 28.058 111.697 29.4326 111.697 31.7834C111.697 34.1441 110.641 35.5187 108.788 35.5187Z" fill="white"/>
<path d="M115.56 37.2121H117.702V30.8072C117.702 29.2832 118.847 28.2572 120.471 28.2572C120.849 28.2572 121.487 28.3269 121.666 28.3867V26.275C121.437 26.2152 121.028 26.1853 120.71 26.1853C119.295 26.1853 118.09 26.9623 117.781 28.0281H117.622V26.3646H115.56V37.2121Z" fill="white"/>
<path d="M126.984 27.9783C128.567 27.9783 129.603 29.084 129.653 30.7873H124.175C124.294 29.0939 125.4 27.9783 126.984 27.9783ZM129.643 34.2836C129.245 35.1302 128.358 35.5984 127.063 35.5984C125.35 35.5984 124.244 34.3931 124.175 32.4906V32.3711H131.834V31.624C131.834 28.2174 130.012 26.1554 126.993 26.1554C123.935 26.1554 121.993 28.3568 121.993 31.8232C121.993 35.2896 123.896 37.4213 127.003 37.4213C129.484 37.4213 131.217 36.2259 131.705 34.2836H129.643Z" fill="white"/>
<path d="M84.1868 33.2063C84.352 35.8699 86.5717 37.5734 89.8754 37.5734C93.4063 37.5734 95.6157 35.7873 95.6157 32.9379C95.6157 30.6975 94.3561 29.4586 91.3002 28.7462L89.6586 28.3436C87.7177 27.8893 86.933 27.2802 86.933 26.2168C86.933 24.8746 88.1513 23.9971 89.9787 23.9971C91.7131 23.9971 92.9107 24.854 93.1275 26.2271H95.3782C95.244 23.7183 93.0346 21.9529 90.0096 21.9529C86.7575 21.9529 84.5894 23.7183 84.5894 26.3716C84.5894 28.5604 85.818 29.8612 88.5126 30.491L90.4329 30.9556C92.4049 31.4202 93.2721 32.1016 93.2721 33.2373C93.2721 34.5588 91.9093 35.5189 90.0509 35.5189C88.0584 35.5189 86.6749 34.6207 86.4787 33.2063H84.1868Z" fill="white"/>
<path d="M62.002 26.1853C60.5278 26.1853 59.2528 26.9224 58.5953 28.1576H58.436V26.3646H56.374V40.8179H58.5156V35.5685H58.685C59.2528 36.714 60.4779 37.3914 62.0219 37.3914C64.7612 37.3914 66.5043 35.2299 66.5043 31.7834C66.5043 28.3369 64.7612 26.1853 62.002 26.1853ZM61.3944 35.4689C59.6014 35.4689 58.4758 34.0545 58.4758 31.7933C58.4758 29.5222 59.6014 28.1078 61.4043 28.1078C63.2172 28.1078 64.3029 29.4924 64.3029 31.7834C64.3029 34.0843 63.2172 35.4689 61.3944 35.4689Z" fill="white"/>
<path d="M73.9981 26.1853C72.5239 26.1853 71.2489 26.9224 70.5915 28.1576H70.4321V26.3646H68.3702V40.8179H70.5118V35.5685H70.6811C71.2489 36.714 72.4741 37.3914 74.018 37.3914C76.7573 37.3914 78.5005 35.2299 78.5005 31.7834C78.5005 28.3369 76.7573 26.1853 73.9981 26.1853ZM73.3905 35.4689C71.5975 35.4689 70.472 34.0545 70.472 31.7933C70.472 29.5222 71.5975 28.1078 73.4005 28.1078C75.2134 28.1078 76.2991 29.4924 76.2991 31.7834C76.2991 34.0843 75.2134 35.4689 73.3905 35.4689Z" fill="white"/>
<path d="M52.5316 37.2121H54.9888L49.6099 22.3142H47.1217L41.7428 37.2121H44.1174L45.4905 33.2579H51.1688L52.5316 37.2121ZM48.2471 25.0192H48.4226L50.5804 31.3169H46.079L48.2471 25.0192Z" fill="white"/>
<path d="M43.1814 11.0771V18.2639H45.7762C47.9178 18.2639 49.1579 16.9441 49.1579 14.6481C49.1579 12.387 47.9078 11.0771 45.7762 11.0771H43.1814ZM44.297 12.0931H45.6517C47.1408 12.0931 48.0224 13.0394 48.0224 14.6631C48.0224 16.3116 47.1558 17.2479 45.6517 17.2479H44.297V12.0931Z" fill="white"/>
<path d="M52.956 18.3685C54.5398 18.3685 55.511 17.3077 55.511 15.5496C55.511 13.8014 54.5348 12.7356 52.956 12.7356C51.3722 12.7356 50.3961 13.8014 50.3961 15.5496C50.3961 17.3077 51.3673 18.3685 52.956 18.3685ZM52.956 17.4173C52.0247 17.4173 51.5017 16.7349 51.5017 15.5496C51.5017 14.3742 52.0247 13.6869 52.956 13.6869C53.8824 13.6869 54.4103 14.3742 54.4103 15.5496C54.4103 16.73 53.8824 17.4173 52.956 17.4173Z" fill="white"/>
<path d="M63.7816 12.8402H62.7108L61.7446 16.979H61.6599L60.5443 12.8402H59.5183L58.4027 16.979H58.323L57.3518 12.8402H56.266L57.7602 18.2639H58.8609L59.9765 14.2696H60.0612L61.1818 18.2639H62.2924L63.7816 12.8402Z" fill="white"/>
<path d="M65.0147 18.2639H66.0855V15.0914C66.0855 14.2447 66.5886 13.7168 67.3805 13.7168C68.1724 13.7168 68.5509 14.1501 68.5509 15.0217V18.2639H69.6217V14.7527C69.6217 13.4628 68.9543 12.7356 67.744 12.7356C66.9272 12.7356 66.3893 13.0992 66.1254 13.7018H66.0457V12.8402H65.0147V18.2639Z" fill="white"/>
<path d="M71.3081 18.2639H72.3789V10.7235H71.3081V18.2639Z" fill="white"/>
<path d="M76.4061 18.3685C77.9899 18.3685 78.961 17.3077 78.961 15.5496C78.961 13.8014 77.9849 12.7356 76.4061 12.7356C74.8223 12.7356 73.8461 13.8014 73.8461 15.5496C73.8461 17.3077 74.8173 18.3685 76.4061 18.3685ZM76.4061 17.4173C75.4747 17.4173 74.9518 16.7349 74.9518 15.5496C74.9518 14.3742 75.4747 13.6869 76.4061 13.6869C77.3324 13.6869 77.8604 14.3742 77.8604 15.5496C77.8604 16.73 77.3324 17.4173 76.4061 17.4173Z" fill="white"/>
<path d="M82.1515 17.4521C81.5688 17.4521 81.1455 17.1682 81.1455 16.6802C81.1455 16.202 81.4841 15.948 82.2312 15.8982L83.556 15.8135V16.2668C83.556 16.9391 82.9584 17.4521 82.1515 17.4521ZM81.8776 18.3536C82.5898 18.3536 83.1825 18.0448 83.5062 17.5019H83.5909V18.2639H84.6218V14.5585C84.6218 13.413 83.8549 12.7356 82.4952 12.7356C81.265 12.7356 80.3884 13.3333 80.2789 14.2646H81.3148C81.4343 13.8811 81.8477 13.662 82.4454 13.662C83.1775 13.662 83.556 13.9857 83.556 14.5585V15.0266L82.0868 15.1113C80.7968 15.191 80.0697 15.7538 80.0697 16.73C80.0697 17.7211 80.8317 18.3536 81.8776 18.3536Z" fill="white"/>
<path d="M88.2556 18.3536C89.0027 18.3536 89.6352 18 89.9589 17.4073H90.0436V18.2639H91.0696V10.7235H89.9988V13.7018H89.9191C89.6252 13.1042 88.9977 12.7506 88.2556 12.7506C86.886 12.7506 86.0044 13.8363 86.0044 15.5496C86.0044 17.2678 86.876 18.3536 88.2556 18.3536ZM88.5594 13.7118C89.4559 13.7118 90.0187 14.424 90.0187 15.5546C90.0187 16.6901 89.4609 17.3924 88.5594 17.3924C87.653 17.3924 87.1101 16.7001 87.1101 15.5496C87.1101 14.4091 87.6579 13.7118 88.5594 13.7118Z" fill="white"/>
<path d="M98.0133 18.3685C99.5971 18.3685 100.568 17.3077 100.568 15.5496C100.568 13.8014 99.5921 12.7356 98.0133 12.7356C96.4295 12.7356 95.4534 13.8014 95.4534 15.5496C95.4534 17.3077 96.4246 18.3685 98.0133 18.3685ZM98.0133 17.4173C97.082 17.4173 96.559 16.7349 96.559 15.5496C96.559 14.3742 97.082 13.6869 98.0133 13.6869C98.9397 13.6869 99.4676 14.3742 99.4676 15.5496C99.4676 16.73 98.9397 17.4173 98.0133 17.4173Z" fill="white"/>
<path d="M101.986 18.2639H103.057V15.0914C103.057 14.2447 103.56 13.7168 104.351 13.7168C105.143 13.7168 105.522 14.1501 105.522 15.0217V18.2639H106.593V14.7527C106.593 13.4628 105.925 12.7356 104.715 12.7356C103.898 12.7356 103.36 13.0992 103.096 13.7018H103.017V12.8402H101.986V18.2639Z" fill="white"/>
<path d="M111.524 11.4905V12.8651H110.663V13.7666H111.524V16.8296C111.524 17.8755 111.997 18.2938 113.188 18.2938C113.397 18.2938 113.596 18.2689 113.771 18.239V17.3475C113.621 17.3625 113.526 17.3724 113.362 17.3724C112.829 17.3724 112.595 17.1234 112.595 16.5556V13.7666H113.771V12.8651H112.595V11.4905H111.524Z" fill="white"/>
<path d="M115.208 18.2639H116.279V15.0964C116.279 14.2746 116.767 13.7218 117.643 13.7218C118.4 13.7218 118.804 14.16 118.804 15.0266V18.2639H119.875V14.7627C119.875 13.4727 119.162 12.7406 118.007 12.7406C117.19 12.7406 116.617 13.1042 116.353 13.7118H116.269V10.7235H115.208V18.2639Z" fill="white"/>
<path d="M123.737 13.647C124.529 13.647 125.047 14.1999 125.072 15.0515H122.333C122.393 14.2049 122.946 13.647 123.737 13.647ZM125.067 16.7997C124.868 17.223 124.425 17.4571 123.777 17.4571C122.921 17.4571 122.368 16.8545 122.333 15.9032V15.8434H126.163V15.4699C126.163 13.7666 125.252 12.7356 123.742 12.7356C122.213 12.7356 121.242 13.8363 121.242 15.5695C121.242 17.3027 122.194 18.3685 123.747 18.3685C124.988 18.3685 125.854 17.7709 126.098 16.7997H125.067Z" fill="white"/>
<path d="M30.1228 24.9851C30.1488 22.9679 31.2321 21.0591 32.9507 20.0026C31.8665 18.4542 30.0506 17.4725 28.1613 17.4134C26.1462 17.2019 24.1927 18.6192 23.1658 18.6192C22.1191 18.6192 20.5381 17.4344 18.8356 17.4694C16.6165 17.5411 14.5477 18.8027 13.4681 20.7428C11.1473 24.7609 12.8784 30.6662 15.1015 33.9141C16.2138 35.5046 17.5138 37.2811 19.2147 37.2181C20.8792 37.1491 21.5008 36.1567 23.51 36.1567C25.5005 36.1567 26.0837 37.2181 27.8192 37.178C29.6052 37.149 30.7305 35.5806 31.8038 33.9751C32.603 32.8418 33.2179 31.5894 33.6259 30.2641C31.5269 29.3763 30.1253 27.264 30.1228 24.9851Z" fill="white"/>
<path d="M26.8448 15.2774C27.8186 14.1083 28.2984 12.6057 28.1822 11.0886C26.6944 11.2449 25.3201 11.956 24.3331 13.0802C23.368 14.1786 22.8657 15.6547 22.9607 17.1138C24.449 17.1291 25.9122 16.4374 26.8448 15.2774Z" fill="white"/>
</svg>
