<svg width="122" height="122" viewBox="0 0 122 122" fill="none" xmlns="http://www.w3.org/2000/svg">
<rect x="0.666992" y="0.686768" width="120.833" height="120.833" rx="12" fill="white"/>
<rect x="1.16699" y="1.18677" width="119.833" height="119.833" rx="11.5" stroke="black" stroke-opacity="0.1"/>
<path d="M16.5403 12.6868H12.667V16.5601H16.5403V12.6868Z" fill="black"/>
<path d="M16.5404 16.5601H12.6671V20.4334H16.5404V16.5601Z" fill="black"/>
<path d="M16.5404 20.4334H12.6671V24.3067H16.5404V20.4334Z" fill="black"/>
<path d="M16.5404 24.3067H12.6671V28.18H16.5404V24.3067Z" fill="black"/>
<path d="M16.5404 28.18H12.6671V32.0533H16.5404V28.18Z" fill="black"/>
<path d="M16.5404 32.0534H12.6671V35.9267H16.5404V32.0534Z" fill="black"/>
<path d="M16.5404 35.9267H12.6671V39.8H16.5404V35.9267Z" fill="black"/>
<path d="M16.5404 43.6733H12.6671V47.5466H16.5404V43.6733Z" fill="black"/>
<path d="M16.5404 47.5466H12.6671V51.4199H16.5404V47.5466Z" fill="black"/>
<path d="M16.5404 51.4199H12.6671V55.2932H16.5404V51.4199Z" fill="black"/>
<path d="M16.5404 59.1665H12.6671V63.0398H16.5404V59.1665Z" fill="black"/>
<path d="M16.5404 63.0398H12.6671V66.9131H16.5404V63.0398Z" fill="black"/>
<path d="M16.5404 70.7865H12.6671V74.6598H16.5404V70.7865Z" fill="black"/>
<path d="M16.5404 82.4064H12.6671V86.2797H16.5404V82.4064Z" fill="black"/>
<path d="M16.5404 86.2797H12.6671V90.153H16.5404V86.2797Z" fill="black"/>
<path d="M16.5404 90.153H12.6671V94.0263H16.5404V90.153Z" fill="black"/>
<path d="M16.5404 94.0263H12.6671V97.8996H16.5404V94.0263Z" fill="black"/>
<path d="M16.5404 97.8996H12.6671V101.773H16.5404V97.8996Z" fill="black"/>
<path d="M16.5404 101.773H12.6671V105.646H16.5404V101.773Z" fill="black"/>
<path d="M16.5404 105.646H12.6671V109.52H16.5404V105.646Z" fill="black"/>
<path d="M20.4135 12.6868H16.5402V16.5601H20.4135V12.6868Z" fill="black"/>
<path d="M20.4135 35.9267H16.5402V39.8H20.4135V35.9267Z" fill="black"/>
<path d="M20.4135 43.6733H16.5402V47.5466H20.4135V43.6733Z" fill="black"/>
<path d="M20.4135 47.5466H16.5402V51.4199H20.4135V47.5466Z" fill="black"/>
<path d="M20.4135 59.1665H16.5402V63.0398H20.4135V59.1665Z" fill="black"/>
<path d="M20.4135 63.0398H16.5402V66.9131H20.4135V63.0398Z" fill="black"/>
<path d="M20.4135 66.9131H16.5402V70.7864H20.4135V66.9131Z" fill="black"/>
<path d="M20.4135 82.4064H16.5402V86.2797H20.4135V82.4064Z" fill="black"/>
<path d="M20.4135 105.646H16.5402V109.52H20.4135V105.646Z" fill="black"/>
<path d="M24.2871 12.6868H20.4138V16.5601H24.2871V12.6868Z" fill="black"/>
<path d="M24.2871 20.4334H20.4138V24.3067H24.2871V20.4334Z" fill="black"/>
<path d="M24.2871 24.3067H20.4138V28.18H24.2871V24.3067Z" fill="black"/>
<path d="M24.2871 28.18H20.4138V32.0533H24.2871V28.18Z" fill="black"/>
<path d="M24.2871 35.9267H20.4138V39.8H24.2871V35.9267Z" fill="black"/>
<path d="M24.2871 47.5466H20.4138V51.4199H24.2871V47.5466Z" fill="black"/>
<path d="M24.2871 51.4199H20.4138V55.2932H24.2871V51.4199Z" fill="black"/>
<path d="M24.2871 55.2932H20.4138V59.1665H24.2871V55.2932Z" fill="black"/>
<path d="M24.2871 59.1665H20.4138V63.0398H24.2871V59.1665Z" fill="black"/>
<path d="M24.2871 74.6598H20.4138V78.5331H24.2871V74.6598Z" fill="black"/>
<path d="M24.2871 82.4064H20.4138V86.2797H24.2871V82.4064Z" fill="black"/>
<path d="M24.2871 90.153H20.4138V94.0263H24.2871V90.153Z" fill="black"/>
<path d="M24.2871 94.0263H20.4138V97.8996H24.2871V94.0263Z" fill="black"/>
<path d="M24.2871 97.8996H20.4138V101.773H24.2871V97.8996Z" fill="black"/>
<path d="M24.2871 105.646H20.4138V109.52H24.2871V105.646Z" fill="black"/>
<path d="M28.1602 12.6868H24.2869V16.5601H28.1602V12.6868Z" fill="black"/>
<path d="M28.1602 20.4334H24.2869V24.3067H28.1602V20.4334Z" fill="black"/>
<path d="M28.1602 24.3067H24.2869V28.18H28.1602V24.3067Z" fill="black"/>
<path d="M28.1602 28.18H24.2869V32.0533H28.1602V28.18Z" fill="black"/>
<path d="M28.1602 35.9267H24.2869V39.8H28.1602V35.9267Z" fill="black"/>
<path d="M28.1602 43.6733H24.2869V47.5466H28.1602V43.6733Z" fill="black"/>
<path d="M28.1602 51.4199H24.2869V55.2932H28.1602V51.4199Z" fill="black"/>
<path d="M28.1602 55.2932H24.2869V59.1665H28.1602V55.2932Z" fill="black"/>
<path d="M28.1602 59.1665H24.2869V63.0398H28.1602V59.1665Z" fill="black"/>
<path d="M28.1602 63.0398H24.2869V66.9131H28.1602V63.0398Z" fill="black"/>
<path d="M28.1602 82.4064H24.2869V86.2797H28.1602V82.4064Z" fill="black"/>
<path d="M28.1602 90.153H24.2869V94.0263H28.1602V90.153Z" fill="black"/>
<path d="M28.1602 94.0263H24.2869V97.8996H28.1602V94.0263Z" fill="black"/>
<path d="M28.1602 97.8996H24.2869V101.773H28.1602V97.8996Z" fill="black"/>
<path d="M28.1602 105.646H24.2869V109.52H28.1602V105.646Z" fill="black"/>
<path d="M32.0336 12.6868H28.1603V16.5601H32.0336V12.6868Z" fill="black"/>
<path d="M32.0336 20.4334H28.1603V24.3067H32.0336V20.4334Z" fill="black"/>
<path d="M32.0336 24.3067H28.1603V28.18H32.0336V24.3067Z" fill="black"/>
<path d="M32.0336 28.18H28.1603V32.0533H32.0336V28.18Z" fill="black"/>
<path d="M32.0336 35.9267H28.1603V39.8H32.0336V35.9267Z" fill="black"/>
<path d="M32.0336 47.5466H28.1603V51.4199H32.0336V47.5466Z" fill="black"/>
<path d="M32.0336 63.0398H28.1603V66.9131H32.0336V63.0398Z" fill="black"/>
<path d="M32.0336 70.7865H28.1603V74.6598H32.0336V70.7865Z" fill="black"/>
<path d="M32.0336 82.4064H28.1603V86.2797H32.0336V82.4064Z" fill="black"/>
<path d="M32.0336 90.153H28.1603V94.0263H32.0336V90.153Z" fill="black"/>
<path d="M32.0336 94.0263H28.1603V97.8996H32.0336V94.0263Z" fill="black"/>
<path d="M32.0336 97.8996H28.1603V101.773H32.0336V97.8996Z" fill="black"/>
<path d="M32.0336 105.646H28.1603V109.52H32.0336V105.646Z" fill="black"/>
<path d="M35.9068 12.6868H32.0334V16.5601H35.9068V12.6868Z" fill="black"/>
<path d="M35.9068 35.9267H32.0334V39.8H35.9068V35.9267Z" fill="black"/>
<path d="M35.9068 47.5466H32.0334V51.4199H35.9068V47.5466Z" fill="black"/>
<path d="M35.9068 59.1665H32.0334V63.0398H35.9068V59.1665Z" fill="black"/>
<path d="M35.9068 66.9131H32.0334V70.7864H35.9068V66.9131Z" fill="black"/>
<path d="M35.9068 70.7865H32.0334V74.6598H35.9068V70.7865Z" fill="black"/>
<path d="M35.9068 82.4064H32.0334V86.2797H35.9068V82.4064Z" fill="black"/>
<path d="M35.9068 105.646H32.0334V109.52H35.9068V105.646Z" fill="black"/>
<path d="M39.7803 12.6868H35.907V16.5601H39.7803V12.6868Z" fill="black"/>
<path d="M39.7803 16.5601H35.907V20.4334H39.7803V16.5601Z" fill="black"/>
<path d="M39.7803 20.4334H35.907V24.3067H39.7803V20.4334Z" fill="black"/>
<path d="M39.7803 24.3067H35.907V28.18H39.7803V24.3067Z" fill="black"/>
<path d="M39.7803 28.18H35.907V32.0533H39.7803V28.18Z" fill="black"/>
<path d="M39.7803 32.0534H35.907V35.9267H39.7803V32.0534Z" fill="black"/>
<path d="M39.7803 35.9267H35.907V39.8H39.7803V35.9267Z" fill="black"/>
<path d="M39.7803 43.6733H35.907V47.5466H39.7803V43.6733Z" fill="black"/>
<path d="M39.7803 51.4199H35.907V55.2932H39.7803V51.4199Z" fill="black"/>
<path d="M39.7803 59.1665H35.907V63.0398H39.7803V59.1665Z" fill="black"/>
<path d="M39.7803 66.9131H35.907V70.7864H39.7803V66.9131Z" fill="black"/>
<path d="M39.7803 74.6598H35.907V78.5331H39.7803V74.6598Z" fill="black"/>
<path d="M39.7803 82.4064H35.907V86.2797H39.7803V82.4064Z" fill="black"/>
<path d="M39.7803 86.2797H35.907V90.153H39.7803V86.2797Z" fill="black"/>
<path d="M39.7803 90.153H35.907V94.0263H39.7803V90.153Z" fill="black"/>
<path d="M39.7803 94.0263H35.907V97.8996H39.7803V94.0263Z" fill="black"/>
<path d="M39.7803 97.8996H35.907V101.773H39.7803V97.8996Z" fill="black"/>
<path d="M39.7803 101.773H35.907V105.646H39.7803V101.773Z" fill="black"/>
<path d="M39.7803 105.646H35.907V109.52H39.7803V105.646Z" fill="black"/>
<path d="M43.6535 43.6733H39.7802V47.5466H43.6535V43.6733Z" fill="black"/>
<path d="M43.6535 47.5466H39.7802V51.4199H43.6535V47.5466Z" fill="black"/>
<path d="M43.6535 51.4199H39.7802V55.2932H43.6535V51.4199Z" fill="black"/>
<path d="M43.6535 55.2932H39.7802V59.1665H43.6535V55.2932Z" fill="black"/>
<path d="M43.6535 59.1665H39.7802V63.0398H43.6535V59.1665Z" fill="black"/>
<path d="M43.6535 74.6598H39.7802V78.5331H43.6535V74.6598Z" fill="black"/>
<path d="M47.5268 16.5601H43.6535V20.4334H47.5268V16.5601Z" fill="black"/>
<path d="M47.5268 20.4334H43.6535V24.3067H47.5268V20.4334Z" fill="black"/>
<path d="M47.5268 28.18H43.6535V32.0533H47.5268V28.18Z" fill="black"/>
<path d="M47.5268 32.0534H43.6535V35.9267H47.5268V32.0534Z" fill="black"/>
<path d="M47.5268 35.9267H43.6535V39.8H47.5268V35.9267Z" fill="black"/>
<path d="M47.5268 39.8H43.6535V43.6733H47.5268V39.8Z" fill="black"/>
<path d="M47.5268 51.4199H43.6535V55.2932H47.5268V51.4199Z" fill="black"/>
<path d="M47.5268 59.1665H43.6535V63.0398H47.5268V59.1665Z" fill="black"/>
<path d="M47.5268 63.0398H43.6535V66.9131H47.5268V63.0398Z" fill="black"/>
<path d="M47.5268 66.9131H43.6535V70.7864H47.5268V66.9131Z" fill="black"/>
<path d="M47.5268 70.7865H43.6535V74.6598H47.5268V70.7865Z" fill="black"/>
<path d="M47.5268 78.5331H43.6535V82.4064H47.5268V78.5331Z" fill="black"/>
<path d="M47.5268 82.4064H43.6535V86.2797H47.5268V82.4064Z" fill="black"/>
<path d="M47.5268 94.0263H43.6535V97.8996H47.5268V94.0263Z" fill="black"/>
<path d="M47.5268 101.773H43.6535V105.646H47.5268V101.773Z" fill="black"/>
<path d="M47.5268 105.646H43.6535V109.52H47.5268V105.646Z" fill="black"/>
<path d="M51.4 16.5601H47.5267V20.4334H51.4V16.5601Z" fill="black"/>
<path d="M51.4 24.3067H47.5267V28.18H51.4V24.3067Z" fill="black"/>
<path d="M51.4 28.18H47.5267V32.0533H51.4V28.18Z" fill="black"/>
<path d="M51.4 47.5466H47.5267V51.4199H51.4V47.5466Z" fill="black"/>
<path d="M51.4 55.2932H47.5267V59.1665H51.4V55.2932Z" fill="black"/>
<path d="M51.4 74.6598H47.5267V78.5331H51.4V74.6598Z" fill="black"/>
<path d="M51.4 78.5331H47.5267V82.4064H51.4V78.5331Z" fill="black"/>
<path d="M51.4 94.0263H47.5267V97.8996H51.4V94.0263Z" fill="black"/>
<path d="M51.4 101.773H47.5267V105.646H51.4V101.773Z" fill="black"/>
<path d="M51.4 105.646H47.5267V109.52H51.4V105.646Z" fill="black"/>
<path d="M55.2736 12.6868H51.4003V16.5601H55.2736V12.6868Z" fill="black"/>
<path d="M55.2736 16.5601H51.4003V20.4334H55.2736V16.5601Z" fill="black"/>
<path d="M55.2736 28.18H51.4003V32.0533H55.2736V28.18Z" fill="black"/>
<path d="M55.2736 32.0534H51.4003V35.9267H55.2736V32.0534Z" fill="black"/>
<path d="M55.2736 35.9267H51.4003V39.8H55.2736V35.9267Z" fill="black"/>
<path d="M55.2736 39.8H51.4003V43.6733H55.2736V39.8Z" fill="black"/>
<path d="M55.2736 55.2932H51.4003V59.1665H55.2736V55.2932Z" fill="black"/>
<path d="M55.2736 59.1665H51.4003V63.0398H55.2736V59.1665Z" fill="black"/>
<path d="M55.2736 66.9131H51.4003V70.7864H55.2736V66.9131Z" fill="black"/>
<path d="M55.2736 74.6598H51.4003V78.5331H55.2736V74.6598Z" fill="black"/>
<path d="M55.2736 86.2797H51.4003V90.153H55.2736V86.2797Z" fill="black"/>
<path d="M55.2736 90.153H51.4003V94.0263H55.2736V90.153Z" fill="black"/>
<path d="M55.2736 101.773H51.4003V105.646H55.2736V101.773Z" fill="black"/>
<path d="M55.2736 105.646H51.4003V109.52H55.2736V105.646Z" fill="black"/>
<path d="M59.1467 39.8H55.2734V43.6733H59.1467V39.8Z" fill="black"/>
<path d="M59.1467 43.6733H55.2734V47.5466H59.1467V43.6733Z" fill="black"/>
<path d="M59.1467 47.5466H55.2734V51.4199H59.1467V47.5466Z" fill="black"/>
<path d="M59.1467 51.4199H55.2734V55.2932H59.1467V51.4199Z" fill="black"/>
<path d="M59.1467 55.2932H55.2734V59.1665H59.1467V55.2932Z" fill="black"/>
<path d="M59.1467 59.1665H55.2734V63.0398H59.1467V59.1665Z" fill="black"/>
<path d="M59.1467 63.0398H55.2734V66.9131H59.1467V63.0398Z" fill="black"/>
<path d="M59.1467 66.9131H55.2734V70.7864H59.1467V66.9131Z" fill="black"/>
<path d="M59.1467 74.6598H55.2734V78.5331H59.1467V74.6598Z" fill="black"/>
<path d="M59.1467 78.5331H55.2734V82.4064H59.1467V78.5331Z" fill="black"/>
<path d="M59.1467 86.2797H55.2734V90.153H59.1467V86.2797Z" fill="black"/>
<path d="M59.1467 101.773H55.2734V105.646H59.1467V101.773Z" fill="black"/>
<path d="M59.1467 105.646H55.2734V109.52H59.1467V105.646Z" fill="black"/>
<path d="M63.02 24.3067H59.1467V28.18H63.02V24.3067Z" fill="black"/>
<path d="M63.02 28.18H59.1467V32.0533H63.02V28.18Z" fill="black"/>
<path d="M63.02 32.0534H59.1467V35.9267H63.02V32.0534Z" fill="black"/>
<path d="M63.02 35.9267H59.1467V39.8H63.02V35.9267Z" fill="black"/>
<path d="M63.02 43.6733H59.1467V47.5466H63.02V43.6733Z" fill="black"/>
<path d="M63.02 47.5466H59.1467V51.4199H63.02V47.5466Z" fill="black"/>
<path d="M63.02 51.4199H59.1467V55.2932H63.02V51.4199Z" fill="black"/>
<path d="M63.02 55.2932H59.1467V59.1665H63.02V55.2932Z" fill="black"/>
<path d="M63.02 59.1665H59.1467V63.0398H63.02V59.1665Z" fill="black"/>
<path d="M63.02 70.7865H59.1467V74.6598H63.02V70.7865Z" fill="black"/>
<path d="M63.02 74.6598H59.1467V78.5331H63.02V74.6598Z" fill="black"/>
<path d="M63.02 86.2797H59.1467V90.153H63.02V86.2797Z" fill="black"/>
<path d="M63.02 90.153H59.1467V94.0263H63.02V90.153Z" fill="black"/>
<path d="M63.02 94.0263H59.1467V97.8996H63.02V94.0263Z" fill="black"/>
<path d="M63.02 101.773H59.1467V105.646H63.02V101.773Z" fill="black"/>
<path d="M63.02 105.646H59.1467V109.52H63.02V105.646Z" fill="black"/>
<path d="M66.8935 28.18H63.0201V32.0533H66.8935V28.18Z" fill="black"/>
<path d="M66.8935 32.0534H63.0201V35.9267H66.8935V32.0534Z" fill="black"/>
<path d="M66.8935 43.6733H63.0201V47.5466H66.8935V43.6733Z" fill="black"/>
<path d="M66.8935 51.4199H63.0201V55.2932H66.8935V51.4199Z" fill="black"/>
<path d="M66.8935 55.2932H63.0201V59.1665H66.8935V55.2932Z" fill="black"/>
<path d="M66.8935 59.1665H63.0201V63.0398H66.8935V59.1665Z" fill="black"/>
<path d="M66.8935 70.7865H63.0201V74.6598H66.8935V70.7865Z" fill="black"/>
<path d="M66.8935 82.4064H63.0201V86.2797H66.8935V82.4064Z" fill="black"/>
<path d="M66.8935 90.153H63.0201V94.0263H66.8935V90.153Z" fill="black"/>
<path d="M66.8935 94.0263H63.0201V97.8996H66.8935V94.0263Z" fill="black"/>
<path d="M66.8935 101.773H63.0201V105.646H66.8935V101.773Z" fill="black"/>
<path d="M66.8935 105.646H63.0201V109.52H66.8935V105.646Z" fill="black"/>
<path d="M70.7667 12.6868H66.8934V16.5601H70.7667V12.6868Z" fill="black"/>
<path d="M70.7667 20.4334H66.8934V24.3067H70.7667V20.4334Z" fill="black"/>
<path d="M70.7667 24.3067H66.8934V28.18H70.7667V24.3067Z" fill="black"/>
<path d="M70.7667 32.0534H66.8934V35.9267H70.7667V32.0534Z" fill="black"/>
<path d="M70.7667 35.9267H66.8934V39.8H70.7667V35.9267Z" fill="black"/>
<path d="M70.7667 43.6733H66.8934V47.5466H70.7667V43.6733Z" fill="black"/>
<path d="M70.7667 55.2932H66.8934V59.1665H70.7667V55.2932Z" fill="black"/>
<path d="M70.7667 66.9131H66.8934V70.7864H70.7667V66.9131Z" fill="black"/>
<path d="M70.7667 70.7865H66.8934V74.6598H70.7667V70.7865Z" fill="black"/>
<path d="M70.7667 74.6598H66.8934V78.5331H70.7667V74.6598Z" fill="black"/>
<path d="M70.7667 78.5331H66.8934V82.4064H70.7667V78.5331Z" fill="black"/>
<path d="M70.7667 90.153H66.8934V94.0263H70.7667V90.153Z" fill="black"/>
<path d="M70.7667 97.8996H66.8934V101.773H70.7667V97.8996Z" fill="black"/>
<path d="M74.64 12.6868H70.7667V16.5601H74.64V12.6868Z" fill="black"/>
<path d="M74.64 16.5601H70.7667V20.4334H74.64V16.5601Z" fill="black"/>
<path d="M74.64 28.18H70.7667V32.0533H74.64V28.18Z" fill="black"/>
<path d="M74.64 32.0534H70.7667V35.9267H74.64V32.0534Z" fill="black"/>
<path d="M74.64 55.2932H70.7667V59.1665H74.64V55.2932Z" fill="black"/>
<path d="M74.64 70.7865H70.7667V74.6598H74.64V70.7865Z" fill="black"/>
<path d="M74.64 78.5331H70.7667V82.4064H74.64V78.5331Z" fill="black"/>
<path d="M74.64 82.4064H70.7667V86.2797H74.64V82.4064Z" fill="black"/>
<path d="M74.64 94.0263H70.7667V97.8996H74.64V94.0263Z" fill="black"/>
<path d="M74.64 101.773H70.7667V105.646H74.64V101.773Z" fill="black"/>
<path d="M74.64 105.646H70.7667V109.52H74.64V105.646Z" fill="black"/>
<path d="M78.5133 28.18H74.64V32.0533H78.5133V28.18Z" fill="black"/>
<path d="M78.5133 32.0534H74.64V35.9267H78.5133V32.0534Z" fill="black"/>
<path d="M78.5133 35.9267H74.64V39.8H78.5133V35.9267Z" fill="black"/>
<path d="M78.5133 39.8H74.64V43.6733H78.5133V39.8Z" fill="black"/>
<path d="M78.5133 47.5466H74.64V51.4199H78.5133V47.5466Z" fill="black"/>
<path d="M78.5133 55.2932H74.64V59.1665H78.5133V55.2932Z" fill="black"/>
<path d="M78.5133 59.1665H74.64V63.0398H78.5133V59.1665Z" fill="black"/>
<path d="M78.5133 70.7865H74.64V74.6598H78.5133V70.7865Z" fill="black"/>
<path d="M78.5133 74.6598H74.64V78.5331H78.5133V74.6598Z" fill="black"/>
<path d="M78.5133 78.5331H74.64V82.4064H78.5133V78.5331Z" fill="black"/>
<path d="M78.5133 82.4064H74.64V86.2797H78.5133V82.4064Z" fill="black"/>
<path d="M78.5133 86.2797H74.64V90.153H78.5133V86.2797Z" fill="black"/>
<path d="M78.5133 90.153H74.64V94.0263H78.5133V90.153Z" fill="black"/>
<path d="M78.5133 94.0263H74.64V97.8996H78.5133V94.0263Z" fill="black"/>
<path d="M78.5133 97.8996H74.64V101.773H78.5133V97.8996Z" fill="black"/>
<path d="M78.5133 101.773H74.64V105.646H78.5133V101.773Z" fill="black"/>
<path d="M78.5133 105.646H74.64V109.52H78.5133V105.646Z" fill="black"/>
<path d="M82.3867 51.4199H78.5134V55.2932H82.3867V51.4199Z" fill="black"/>
<path d="M82.3867 55.2932H78.5134V59.1665H82.3867V55.2932Z" fill="black"/>
<path d="M82.3867 59.1665H78.5134V63.0398H82.3867V59.1665Z" fill="black"/>
<path d="M82.3867 74.6598H78.5134V78.5331H82.3867V74.6598Z" fill="black"/>
<path d="M82.3867 90.153H78.5134V94.0263H82.3867V90.153Z" fill="black"/>
<path d="M82.3867 94.0263H78.5134V97.8996H82.3867V94.0263Z" fill="black"/>
<path d="M82.3867 101.773H78.5134V105.646H82.3867V101.773Z" fill="black"/>
<path d="M86.26 12.6868H82.3867V16.5601H86.26V12.6868Z" fill="black"/>
<path d="M86.26 16.5601H82.3867V20.4334H86.26V16.5601Z" fill="black"/>
<path d="M86.26 20.4334H82.3867V24.3067H86.26V20.4334Z" fill="black"/>
<path d="M86.26 24.3067H82.3867V28.18H86.26V24.3067Z" fill="black"/>
<path d="M86.26 28.18H82.3867V32.0533H86.26V28.18Z" fill="black"/>
<path d="M86.26 32.0534H82.3867V35.9267H86.26V32.0534Z" fill="black"/>
<path d="M86.26 35.9267H82.3867V39.8H86.26V35.9267Z" fill="black"/>
<path d="M86.26 43.6733H82.3867V47.5466H86.26V43.6733Z" fill="black"/>
<path d="M86.26 47.5466H82.3867V51.4199H86.26V47.5466Z" fill="black"/>
<path d="M86.26 51.4199H82.3867V55.2932H86.26V51.4199Z" fill="black"/>
<path d="M86.26 55.2932H82.3867V59.1665H86.26V55.2932Z" fill="black"/>
<path d="M86.26 59.1665H82.3867V63.0398H86.26V59.1665Z" fill="black"/>
<path d="M86.26 63.0398H82.3867V66.9131H86.26V63.0398Z" fill="black"/>
<path d="M86.26 66.9131H82.3867V70.7864H86.26V66.9131Z" fill="black"/>
<path d="M86.26 70.7865H82.3867V74.6598H86.26V70.7865Z" fill="black"/>
<path d="M86.26 74.6598H82.3867V78.5331H86.26V74.6598Z" fill="black"/>
<path d="M86.26 82.4064H82.3867V86.2797H86.26V82.4064Z" fill="black"/>
<path d="M86.26 90.153H82.3867V94.0263H86.26V90.153Z" fill="black"/>
<path d="M86.26 101.773H82.3867V105.646H86.26V101.773Z" fill="black"/>
<path d="M90.1332 12.6868H86.2599V16.5601H90.1332V12.6868Z" fill="black"/>
<path d="M90.1332 35.9267H86.2599V39.8H90.1332V35.9267Z" fill="black"/>
<path d="M90.1332 43.6733H86.2599V47.5466H90.1332V43.6733Z" fill="black"/>
<path d="M90.1332 59.1665H86.2599V63.0398H90.1332V59.1665Z" fill="black"/>
<path d="M90.1332 63.0398H86.2599V66.9131H90.1332V63.0398Z" fill="black"/>
<path d="M90.1332 66.9131H86.2599V70.7864H90.1332V66.9131Z" fill="black"/>
<path d="M90.1332 74.6598H86.2599V78.5331H90.1332V74.6598Z" fill="black"/>
<path d="M90.1332 90.153H86.2599V94.0263H90.1332V90.153Z" fill="black"/>
<path d="M90.1332 94.0263H86.2599V97.8996H90.1332V94.0263Z" fill="black"/>
<path d="M90.1332 97.8996H86.2599V101.773H90.1332V97.8996Z" fill="black"/>
<path d="M90.1332 105.646H86.2599V109.52H90.1332V105.646Z" fill="black"/>
<path d="M94.0067 12.6868H90.1334V16.5601H94.0067V12.6868Z" fill="black"/>
<path d="M94.0067 20.4334H90.1334V24.3067H94.0067V20.4334Z" fill="black"/>
<path d="M94.0067 24.3067H90.1334V28.18H94.0067V24.3067Z" fill="black"/>
<path d="M94.0067 28.18H90.1334V32.0533H94.0067V28.18Z" fill="black"/>
<path d="M94.0067 35.9267H90.1334V39.8H94.0067V35.9267Z" fill="black"/>
<path d="M94.0067 43.6733H90.1334V47.5466H94.0067V43.6733Z" fill="black"/>
<path d="M94.0067 55.2932H90.1334V59.1665H94.0067V55.2932Z" fill="black"/>
<path d="M94.0067 66.9131H90.1334V70.7864H94.0067V66.9131Z" fill="black"/>
<path d="M94.0067 70.7865H90.1334V74.6598H94.0067V70.7865Z" fill="black"/>
<path d="M94.0067 74.6598H90.1334V78.5331H94.0067V74.6598Z" fill="black"/>
<path d="M94.0067 78.5331H90.1334V82.4064H94.0067V78.5331Z" fill="black"/>
<path d="M94.0067 82.4064H90.1334V86.2797H94.0067V82.4064Z" fill="black"/>
<path d="M94.0067 86.2797H90.1334V90.153H94.0067V86.2797Z" fill="black"/>
<path d="M94.0067 90.153H90.1334V94.0263H94.0067V90.153Z" fill="black"/>
<path d="M94.0067 94.0263H90.1334V97.8996H94.0067V94.0263Z" fill="black"/>
<path d="M94.0067 97.8996H90.1334V101.773H94.0067V97.8996Z" fill="black"/>
<path d="M97.8799 12.6868H94.0066V16.5601H97.8799V12.6868Z" fill="black"/>
<path d="M97.8799 20.4334H94.0066V24.3067H97.8799V20.4334Z" fill="black"/>
<path d="M97.8799 24.3067H94.0066V28.18H97.8799V24.3067Z" fill="black"/>
<path d="M97.8799 28.18H94.0066V32.0533H97.8799V28.18Z" fill="black"/>
<path d="M97.8799 35.9267H94.0066V39.8H97.8799V35.9267Z" fill="black"/>
<path d="M97.8799 59.1665H94.0066V63.0398H97.8799V59.1665Z" fill="black"/>
<path d="M97.8799 63.0398H94.0066V66.9131H97.8799V63.0398Z" fill="black"/>
<path d="M97.8799 74.6598H94.0066V78.5331H97.8799V74.6598Z" fill="black"/>
<path d="M97.8799 78.5331H94.0066V82.4064H97.8799V78.5331Z" fill="black"/>
<path d="M97.8799 82.4064H94.0066V86.2797H97.8799V82.4064Z" fill="black"/>
<path d="M97.8799 86.2797H94.0066V90.153H97.8799V86.2797Z" fill="black"/>
<path d="M97.8799 90.153H94.0066V94.0263H97.8799V90.153Z" fill="black"/>
<path d="M97.8799 94.0263H94.0066V97.8996H97.8799V94.0263Z" fill="black"/>
<path d="M97.8799 101.773H94.0066V105.646H97.8799V101.773Z" fill="black"/>
<path d="M101.753 12.6868H97.88V16.5601H101.753V12.6868Z" fill="black"/>
<path d="M101.753 20.4334H97.88V24.3067H101.753V20.4334Z" fill="black"/>
<path d="M101.753 24.3067H97.88V28.18H101.753V24.3067Z" fill="black"/>
<path d="M101.753 28.18H97.88V32.0533H101.753V28.18Z" fill="black"/>
<path d="M101.753 35.9267H97.88V39.8H101.753V35.9267Z" fill="black"/>
<path d="M101.753 43.6733H97.88V47.5466H101.753V43.6733Z" fill="black"/>
<path d="M101.753 63.0398H97.88V66.9131H101.753V63.0398Z" fill="black"/>
<path d="M101.753 66.9131H97.88V70.7864H101.753V66.9131Z" fill="black"/>
<path d="M101.753 74.6598H97.88V78.5331H101.753V74.6598Z" fill="black"/>
<path d="M101.753 86.2797H97.88V90.153H101.753V86.2797Z" fill="black"/>
<path d="M101.753 94.0263H97.88V97.8996H101.753V94.0263Z" fill="black"/>
<path d="M101.753 97.8996H97.88V101.773H101.753V97.8996Z" fill="black"/>
<path d="M105.626 12.6868H101.753V16.5601H105.626V12.6868Z" fill="black"/>
<path d="M105.626 35.9267H101.753V39.8H105.626V35.9267Z" fill="black"/>
<path d="M105.626 43.6733H101.753V47.5466H105.626V43.6733Z" fill="black"/>
<path d="M105.626 51.4199H101.753V55.2932H105.626V51.4199Z" fill="black"/>
<path d="M105.626 59.1665H101.753V63.0398H105.626V59.1665Z" fill="black"/>
<path d="M105.626 70.7865H101.753V74.6598H105.626V70.7865Z" fill="black"/>
<path d="M105.626 82.4064H101.753V86.2797H105.626V82.4064Z" fill="black"/>
<path d="M105.626 86.2797H101.753V90.153H105.626V86.2797Z" fill="black"/>
<path d="M105.626 90.153H101.753V94.0263H105.626V90.153Z" fill="black"/>
<path d="M105.626 105.646H101.753V109.52H105.626V105.646Z" fill="black"/>
<path d="M109.5 12.6868H105.627V16.5601H109.5V12.6868Z" fill="black"/>
<path d="M109.5 16.5601H105.627V20.4334H109.5V16.5601Z" fill="black"/>
<path d="M109.5 20.4334H105.627V24.3067H109.5V20.4334Z" fill="black"/>
<path d="M109.5 24.3067H105.627V28.18H109.5V24.3067Z" fill="black"/>
<path d="M109.5 28.18H105.627V32.0533H109.5V28.18Z" fill="black"/>
<path d="M109.5 32.0534H105.627V35.9267H109.5V32.0534Z" fill="black"/>
<path d="M109.5 35.9267H105.627V39.8H109.5V35.9267Z" fill="black"/>
<path d="M109.5 47.5466H105.627V51.4199H109.5V47.5466Z" fill="black"/>
<path d="M109.5 51.4199H105.627V55.2932H109.5V51.4199Z" fill="black"/>
<path d="M109.5 59.1665H105.627V63.0398H109.5V59.1665Z" fill="black"/>
<path d="M109.5 63.0398H105.627V66.9131H109.5V63.0398Z" fill="black"/>
<path d="M109.5 66.9131H105.627V70.7864H109.5V66.9131Z" fill="black"/>
<path d="M109.5 78.5331H105.627V82.4064H109.5V78.5331Z" fill="black"/>
<path d="M109.5 82.4064H105.627V86.2797H109.5V82.4064Z" fill="black"/>
<path d="M109.5 86.2797H105.627V90.153H109.5V86.2797Z" fill="black"/>
<path d="M109.5 97.8996H105.627V101.773H109.5V97.8996Z" fill="black"/>
<path d="M109.5 105.646H105.627V109.52H109.5V105.646Z" fill="black"/>
</svg>
