<svg width="163" height="49" viewBox="0 0 163 49" fill="none" xmlns="http://www.w3.org/2000/svg">
<rect x="0.800012" y="1.22402" width="160.8" height="46.8" rx="13.8" fill="black"/>
<rect x="0.800012" y="1.22402" width="160.8" height="46.8" rx="13.8" stroke="#A6A6A6" stroke-width="1.2"/>
<path d="M81.9632 26.7254C79.1408 26.7254 76.8404 28.8722 76.8404 31.829C76.8404 34.7678 79.1408 36.9326 81.9632 36.9326C84.7868 36.9326 87.0872 34.7678 87.0872 31.829C87.086 28.8722 84.7856 26.7254 81.9632 26.7254ZM81.9632 34.9238C80.4164 34.9238 79.0832 33.6482 79.0832 31.8302C79.0832 29.993 80.4176 28.7366 81.9632 28.7366C83.51 28.7366 84.8432 29.993 84.8432 31.8302C84.8432 33.647 83.51 34.9238 81.9632 34.9238ZM70.7864 26.7254C67.964 26.7254 65.6636 28.8722 65.6636 31.829C65.6636 34.7678 67.964 36.9326 70.7864 36.9326C73.61 36.9326 75.9104 34.7678 75.9104 31.829C75.9104 28.8722 73.61 26.7254 70.7864 26.7254ZM70.7864 34.9238C69.2396 34.9238 67.9064 33.6482 67.9064 31.8302C67.9064 29.993 69.2408 28.7366 70.7864 28.7366C72.3332 28.7366 73.6664 29.993 73.6664 31.8302C73.6676 33.647 72.3332 34.9238 70.7864 34.9238ZM57.4928 28.2926V30.4574H62.6744C62.5196 31.6754 62.114 32.5646 61.4948 33.1826C60.7412 33.9362 59.5616 34.7678 57.4928 34.7678C54.3032 34.7678 51.8096 32.1962 51.8096 29.0066C51.8096 25.817 54.3032 23.2454 57.4928 23.2454C59.2136 23.2454 60.47 23.9222 61.3976 24.7922L62.9252 23.2646C61.6292 22.0274 59.9096 21.0806 57.4928 21.0806C53.1236 21.0806 49.4504 24.6374 49.4504 29.0066C49.4504 33.3758 53.1236 36.9326 57.4928 36.9326C59.8508 36.9326 61.6304 36.1586 63.0212 34.709C64.4516 33.2786 64.8968 31.2674 64.8968 29.6438C64.8968 29.1422 64.8584 28.6778 64.7804 28.2914H57.4928V28.2926ZM111.862 29.9738C111.438 28.8338 110.142 26.7254 107.493 26.7254C104.864 26.7254 102.679 28.7942 102.679 31.829C102.679 34.6898 104.845 36.9326 107.744 36.9326C110.083 36.9326 111.436 35.5022 111.998 34.6706L110.258 33.5102C109.678 34.361 108.885 34.9214 107.744 34.9214C106.604 34.9214 105.792 34.3994 105.27 33.3746L112.094 30.5522L111.862 29.9738ZM104.902 31.6754C104.845 29.7026 106.43 28.6982 107.571 28.6982C108.46 28.6982 109.214 29.1434 109.466 29.7806L104.902 31.6754ZM99.3548 36.6242H101.596V21.623H99.3548V36.6242ZM95.6804 27.8666H95.6036C95.1008 27.2666 94.1336 26.7254 92.9168 26.7254C90.3644 26.7254 88.0256 28.9682 88.0256 31.8494C88.0256 34.7102 90.3644 36.9338 92.9168 36.9338C94.1348 36.9338 95.1008 36.3926 95.6036 35.7746H95.6804V36.509C95.6804 38.4614 94.6364 39.5054 92.9552 39.5054C91.5824 39.5054 90.7316 38.5202 90.3836 37.6886L88.4312 38.501C88.9916 39.8534 90.4796 41.5166 92.9552 41.5166C95.5844 41.5166 97.808 39.9698 97.808 36.1994V27.0362H95.6816V27.8666H95.6804ZM93.11 34.9238C91.5632 34.9238 90.2684 33.6278 90.2684 31.8494C90.2684 30.0506 91.5632 28.7366 93.11 28.7366C94.6364 28.7366 95.8352 30.0506 95.8352 31.8494C95.8352 33.6278 94.6364 34.9238 93.11 34.9238ZM122.367 21.623H117.002V36.6242H119.24V30.941H122.366C124.848 30.941 127.288 29.1446 127.288 26.2826C127.288 23.4206 124.849 21.623 122.367 21.623ZM122.425 28.853H119.24V23.711H122.425C124.099 23.711 125.049 25.097 125.049 26.2826C125.049 27.4442 124.099 28.853 122.425 28.853ZM136.263 26.699C134.642 26.699 132.963 27.413 132.268 28.9958L134.256 29.825C134.68 28.9958 135.472 28.7246 136.302 28.7246C137.46 28.7246 138.637 29.4194 138.656 30.6542V30.809C138.25 30.5774 137.382 30.2306 136.321 30.2306C134.179 30.2306 131.997 31.4078 131.997 33.6074C131.997 35.615 133.754 36.9074 135.722 36.9074C137.227 36.9074 138.057 36.2318 138.578 35.4398H138.655V36.5978H140.817V30.8462C140.818 28.1846 138.829 26.699 136.263 26.699ZM135.992 34.9202C135.26 34.9202 134.236 34.553 134.236 33.6458C134.236 32.4878 135.511 32.0438 136.611 32.0438C137.594 32.0438 138.058 32.2562 138.656 32.5454C138.482 33.9362 137.286 34.9202 135.992 34.9202ZM148.692 27.0266L146.125 33.5306H146.048L143.384 27.0266H140.972L144.967 36.1166L142.689 41.1734H145.024L151.182 27.0266H148.692ZM128.524 36.6242H130.762V21.623H128.524V36.6242Z" fill="white"/>
<path d="M57.1017 12.9156C57.1017 13.9212 56.8041 14.7216 56.2077 15.3192C55.5309 16.0296 54.6477 16.3848 53.5629 16.3848C52.5237 16.3848 51.6393 16.0248 50.9133 15.3048C50.1861 14.5836 49.8225 13.6908 49.8225 12.6252C49.8225 11.5584 50.1861 10.6656 50.9133 9.9456C51.6393 9.2244 52.5237 8.86441 53.5629 8.86441C54.0789 8.86441 54.5721 8.9652 55.0401 9.1656C55.5093 9.3672 55.8849 9.6348 56.1657 9.9696L55.5333 10.6032C55.0569 10.0332 54.4005 9.7488 53.5617 9.7488C52.8033 9.7488 52.1481 10.0152 51.5949 10.548C51.0417 11.0808 50.7657 11.7732 50.7657 12.624C50.7657 13.4748 51.0417 14.1672 51.5949 14.7C52.1481 15.2328 52.8033 15.4992 53.5617 15.4992C54.3657 15.4992 55.0365 15.2316 55.5729 14.6952C55.9209 14.346 56.1225 13.86 56.1765 13.2372H53.5617V12.372H57.0501C57.0861 12.5604 57.1017 12.7416 57.1017 12.9156Z" fill="white"/>
<path d="M62.6338 9.90847H59.3554V12.1909H62.3122V13.0561H59.3554V15.3385H62.6338V16.2241H58.4302V9.02407H62.6338V9.90847Z" fill="white"/>
<path d="M66.5349 16.2241H65.6097V9.90847H63.5985V9.02407H68.5461V9.90847H66.5349V16.2241Z" fill="white"/>
<path d="M72.1256 16.2241V9.02407H73.0508V16.2241H72.1256Z" fill="white"/>
<path d="M77.1538 16.2241H76.2286V9.90847H74.2174V9.02407H79.165V9.90847H77.1538V16.2241Z" fill="white"/>
<path d="M88.5307 15.2941C87.8227 16.0213 86.9431 16.3849 85.8907 16.3849C84.8383 16.3849 83.9587 16.0213 83.2519 15.2941C82.5439 14.5669 82.1911 13.6765 82.1911 12.6241C82.1911 11.5717 82.5439 10.6813 83.2519 9.95406C83.9587 9.22686 84.8383 8.86206 85.8907 8.86206C86.9371 8.86206 87.8155 9.22806 88.5259 9.95886C89.2363 10.6897 89.5915 11.5777 89.5915 12.6241C89.5915 13.6765 89.2375 14.5669 88.5307 15.2941ZM83.9347 14.6905C84.4675 15.2305 85.1191 15.4993 85.8907 15.4993C86.6623 15.4993 87.3151 15.2293 87.8467 14.6905C88.3795 14.1505 88.6471 13.4617 88.6471 12.6241C88.6471 11.7865 88.3795 11.0977 87.8467 10.5577C87.3151 10.0177 86.6623 9.74886 85.8907 9.74886C85.1191 9.74886 84.4675 10.0189 83.9347 10.5577C83.4031 11.0977 83.1355 11.7865 83.1355 12.6241C83.1355 13.4617 83.4031 14.1505 83.9347 14.6905Z" fill="white"/>
<path d="M90.89 16.2241V9.02407H92.0156L95.5148 14.6245H95.5544L95.5148 13.2373V9.02407H96.44V16.2241H95.474L91.8128 10.3513H91.7732L91.8128 11.7385V16.2241H90.89Z" fill="white"/>
<path d="M57.1017 12.9156C57.1017 13.9212 56.8041 14.7216 56.2077 15.3192C55.5309 16.0296 54.6477 16.3848 53.5629 16.3848C52.5237 16.3848 51.6393 16.0248 50.9133 15.3048C50.1861 14.5836 49.8225 13.6908 49.8225 12.6252C49.8225 11.5584 50.1861 10.6656 50.9133 9.9456C51.6393 9.2244 52.5237 8.86441 53.5629 8.86441C54.0789 8.86441 54.5721 8.9652 55.0401 9.1656C55.5093 9.3672 55.8849 9.6348 56.1657 9.9696L55.5333 10.6032C55.0569 10.0332 54.4005 9.7488 53.5617 9.7488C52.8033 9.7488 52.1481 10.0152 51.5949 10.548C51.0417 11.0808 50.7657 11.7732 50.7657 12.624C50.7657 13.4748 51.0417 14.1672 51.5949 14.7C52.1481 15.2328 52.8033 15.4992 53.5617 15.4992C54.3657 15.4992 55.0365 15.2316 55.5729 14.6952C55.9209 14.346 56.1225 13.86 56.1765 13.2372H53.5617V12.372H57.0501C57.0861 12.5604 57.1017 12.7416 57.1017 12.9156Z" stroke="white" stroke-width="0.24" stroke-miterlimit="10"/>
<path d="M62.6338 9.90847H59.3554V12.1909H62.3122V13.0561H59.3554V15.3385H62.6338V16.2241H58.4302V9.02407H62.6338V9.90847Z" stroke="white" stroke-width="0.24" stroke-miterlimit="10"/>
<path d="M66.5349 16.2241H65.6097V9.90847H63.5985V9.02407H68.5461V9.90847H66.5349V16.2241Z" stroke="white" stroke-width="0.24" stroke-miterlimit="10"/>
<path d="M72.1256 16.2241V9.02407H73.0508V16.2241H72.1256Z" stroke="white" stroke-width="0.24" stroke-miterlimit="10"/>
<path d="M77.1538 16.2241H76.2286V9.90847H74.2174V9.02407H79.165V9.90847H77.1538V16.2241Z" stroke="white" stroke-width="0.24" stroke-miterlimit="10"/>
<path d="M88.5307 15.2941C87.8227 16.0213 86.9431 16.3849 85.8907 16.3849C84.8383 16.3849 83.9587 16.0213 83.2519 15.2941C82.5439 14.5669 82.1911 13.6765 82.1911 12.6241C82.1911 11.5717 82.5439 10.6813 83.2519 9.95406C83.9587 9.22686 84.8383 8.86206 85.8907 8.86206C86.9371 8.86206 87.8155 9.22806 88.5259 9.95886C89.2363 10.6897 89.5915 11.5777 89.5915 12.6241C89.5915 13.6765 89.2375 14.5669 88.5307 15.2941ZM83.9347 14.6905C84.4675 15.2305 85.1191 15.4993 85.8907 15.4993C86.6623 15.4993 87.3151 15.2293 87.8467 14.6905C88.3795 14.1505 88.6471 13.4617 88.6471 12.6241C88.6471 11.7865 88.3795 11.0977 87.8467 10.5577C87.3151 10.0177 86.6623 9.74886 85.8907 9.74886C85.1191 9.74886 84.4675 10.0189 83.9347 10.5577C83.4031 11.0977 83.1355 11.7865 83.1355 12.6241C83.1355 13.4617 83.4031 14.1505 83.9347 14.6905Z" stroke="white" stroke-width="0.24" stroke-miterlimit="10"/>
<path d="M90.89 16.2241V9.02407H92.0156L95.5148 14.6245H95.5544L95.5148 13.2373V9.02407H96.44V16.2241H95.474L91.8128 10.3513H91.7732L91.8128 11.7385V16.2241H90.89Z" stroke="white" stroke-width="0.24" stroke-miterlimit="10"/>
<g filter="url(#filter0_ii_14_40406)">
<path d="M12.7232 9.66963C12.374 10.0392 12.1676 10.6128 12.1676 11.3556V37.8948C12.1676 38.6388 12.374 39.2112 12.7232 39.5808L12.812 39.6672L27.6788 24.8004V24.6252V24.45L12.812 9.58203L12.7232 9.66963Z" fill="url(#paint0_linear_14_40406)"/>
<path d="M32.6336 29.7576L27.6788 24.8004V24.6252V24.45L32.6348 19.494L32.7464 19.5576L38.618 22.8936C40.2944 23.8464 40.2944 25.4052 38.618 26.3592L32.7464 29.6952L32.6336 29.7576Z" fill="url(#paint1_linear_14_40406)"/>
<g filter="url(#filter1_i_14_40406)">
<path d="M32.7464 29.694L27.6776 24.6252L12.7232 39.5808C13.2752 40.1664 14.1884 40.2384 15.2168 39.6552L32.7464 29.694Z" fill="url(#paint2_linear_14_40406)"/>
</g>
<path d="M32.7464 19.5564L15.2168 9.59641C14.1884 9.01201 13.2752 9.08521 12.7232 9.67081L27.6788 24.6264L32.7464 19.5564Z" fill="url(#paint3_linear_14_40406)"/>
</g>
<defs>
<filter id="filter0_ii_14_40406" x="12.1676" y="9.19312" width="27.7077" height="30.865" filterUnits="userSpaceOnUse" color-interpolation-filters="sRGB">
<feFlood flood-opacity="0" result="BackgroundImageFix"/>
<feBlend mode="normal" in="SourceGraphic" in2="BackgroundImageFix" result="shape"/>
<feColorMatrix in="SourceAlpha" type="matrix" values="0 0 0 0 0 0 0 0 0 0 0 0 0 0 0 0 0 0 127 0" result="hardAlpha"/>
<feOffset dy="-0.18"/>
<feComposite in2="hardAlpha" operator="arithmetic" k2="-1" k3="1"/>
<feColorMatrix type="matrix" values="0 0 0 0 0 0 0 0 0 0 0 0 0 0 0 0 0 0 0.12 0"/>
<feBlend mode="normal" in2="shape" result="effect1_innerShadow_14_40406"/>
<feColorMatrix in="SourceAlpha" type="matrix" values="0 0 0 0 0 0 0 0 0 0 0 0 0 0 0 0 0 0 127 0" result="hardAlpha"/>
<feOffset dy="0.18"/>
<feComposite in2="hardAlpha" operator="arithmetic" k2="-1" k3="1"/>
<feColorMatrix type="matrix" values="0 0 0 0 1 0 0 0 0 1 0 0 0 0 1 0 0 0 0.25 0"/>
<feBlend mode="normal" in2="effect1_innerShadow_14_40406" result="effect2_innerShadow_14_40406"/>
</filter>
<filter id="filter1_i_14_40406" x="12.7232" y="24.6252" width="20.0232" height="15.4329" filterUnits="userSpaceOnUse" color-interpolation-filters="sRGB">
<feFlood flood-opacity="0" result="BackgroundImageFix"/>
<feBlend mode="normal" in="SourceGraphic" in2="BackgroundImageFix" result="shape"/>
<feColorMatrix in="SourceAlpha" type="matrix" values="0 0 0 0 0 0 0 0 0 0 0 0 0 0 0 0 0 0 127 0" result="hardAlpha"/>
<feOffset dy="-0.18"/>
<feComposite in2="hardAlpha" operator="arithmetic" k2="-1" k3="1"/>
<feColorMatrix type="matrix" values="0 0 0 0 0 0 0 0 0 0 0 0 0 0 0 0 0 0 0.08 0"/>
<feBlend mode="normal" in2="shape" result="effect1_innerShadow_14_40406"/>
</filter>
<linearGradient id="paint0_linear_14_40406" x1="26.361" y1="11.0748" x2="6.22256" y2="31.2132" gradientUnits="userSpaceOnUse">
<stop stop-color="#00A0FF"/>
<stop offset="0.0066" stop-color="#00A1FF"/>
<stop offset="0.2601" stop-color="#00BEFF"/>
<stop offset="0.5122" stop-color="#00D2FF"/>
<stop offset="0.7604" stop-color="#00DFFF"/>
<stop offset="1" stop-color="#00E3FF"/>
</linearGradient>
<linearGradient id="paint1_linear_14_40406" x1="40.8002" y1="24.6252" x2="11.7651" y2="24.6252" gradientUnits="userSpaceOnUse">
<stop stop-color="#FFE000"/>
<stop offset="0.4087" stop-color="#FFBD00"/>
<stop offset="0.7754" stop-color="#FFA500"/>
<stop offset="1" stop-color="#FF9C00"/>
</linearGradient>
<linearGradient id="paint2_linear_14_40406" x1="29.9937" y1="27.3779" x2="2.68353" y2="54.6881" gradientUnits="userSpaceOnUse">
<stop stop-color="#FF3A44"/>
<stop offset="1" stop-color="#C31162"/>
</linearGradient>
<linearGradient id="paint3_linear_14_40406" x1="8.95689" y1="0.836166" x2="21.1516" y2="13.0309" gradientUnits="userSpaceOnUse">
<stop stop-color="#32A071"/>
<stop offset="0.0685" stop-color="#2DA771"/>
<stop offset="0.4762" stop-color="#15CF74"/>
<stop offset="0.8009" stop-color="#06E775"/>
<stop offset="1" stop-color="#00F076"/>
</linearGradient>
</defs>
</svg>
