<svg width="122" height="122" viewBox="0 0 122 122" fill="none" xmlns="http://www.w3.org/2000/svg">
<rect x="0.5" y="0.686768" width="120.833" height="120.833" rx="12" fill="white"/>
<rect x="1" y="1.18677" width="119.833" height="119.833" rx="11.5" stroke="black" stroke-opacity="0.1"/>
<path d="M16.3733 12.6868H12.5V16.5601H16.3733V12.6868Z" fill="black"/>
<path d="M16.3733 16.5601H12.5V20.4334H16.3733V16.5601Z" fill="black"/>
<path d="M16.3733 20.4334H12.5V24.3067H16.3733V20.4334Z" fill="black"/>
<path d="M16.3733 24.3067H12.5V28.18H16.3733V24.3067Z" fill="black"/>
<path d="M16.3733 28.18H12.5V32.0533H16.3733V28.18Z" fill="black"/>
<path d="M16.3733 32.0534H12.5V35.9267H16.3733V32.0534Z" fill="black"/>
<path d="M16.3733 35.9267H12.5V39.8H16.3733V35.9267Z" fill="black"/>
<path d="M16.3733 43.6733H12.5V47.5466H16.3733V43.6733Z" fill="black"/>
<path d="M16.3733 47.5466H12.5V51.4199H16.3733V47.5466Z" fill="black"/>
<path d="M16.3733 51.4199H12.5V55.2932H16.3733V51.4199Z" fill="black"/>
<path d="M16.3733 59.1665H12.5V63.0398H16.3733V59.1665Z" fill="black"/>
<path d="M16.3733 63.0398H12.5V66.9131H16.3733V63.0398Z" fill="black"/>
<path d="M16.3733 70.7865H12.5V74.6598H16.3733V70.7865Z" fill="black"/>
<path d="M16.3733 82.4064H12.5V86.2797H16.3733V82.4064Z" fill="black"/>
<path d="M16.3733 86.2797H12.5V90.153H16.3733V86.2797Z" fill="black"/>
<path d="M16.3733 90.153H12.5V94.0263H16.3733V90.153Z" fill="black"/>
<path d="M16.3733 94.0263H12.5V97.8996H16.3733V94.0263Z" fill="black"/>
<path d="M16.3733 97.8996H12.5V101.773H16.3733V97.8996Z" fill="black"/>
<path d="M16.3733 101.773H12.5V105.646H16.3733V101.773Z" fill="black"/>
<path d="M16.3733 105.646H12.5V109.52H16.3733V105.646Z" fill="black"/>
<path d="M20.2465 12.6868H16.3732V16.5601H20.2465V12.6868Z" fill="black"/>
<path d="M20.2465 35.9267H16.3732V39.8H20.2465V35.9267Z" fill="black"/>
<path d="M20.2465 43.6733H16.3732V47.5466H20.2465V43.6733Z" fill="black"/>
<path d="M20.2465 47.5466H16.3732V51.4199H20.2465V47.5466Z" fill="black"/>
<path d="M20.2465 59.1665H16.3732V63.0398H20.2465V59.1665Z" fill="black"/>
<path d="M20.2465 63.0398H16.3732V66.9131H20.2465V63.0398Z" fill="black"/>
<path d="M20.2465 66.9131H16.3732V70.7864H20.2465V66.9131Z" fill="black"/>
<path d="M20.2465 82.4064H16.3732V86.2797H20.2465V82.4064Z" fill="black"/>
<path d="M20.2465 105.646H16.3732V109.52H20.2465V105.646Z" fill="black"/>
<path d="M24.12 12.6868H20.2467V16.5601H24.12V12.6868Z" fill="black"/>
<path d="M24.12 20.4334H20.2467V24.3067H24.12V20.4334Z" fill="black"/>
<path d="M24.12 24.3067H20.2467V28.18H24.12V24.3067Z" fill="black"/>
<path d="M24.12 28.18H20.2467V32.0533H24.12V28.18Z" fill="black"/>
<path d="M24.12 35.9267H20.2467V39.8H24.12V35.9267Z" fill="black"/>
<path d="M24.12 47.5466H20.2467V51.4199H24.12V47.5466Z" fill="black"/>
<path d="M24.12 51.4199H20.2467V55.2932H24.12V51.4199Z" fill="black"/>
<path d="M24.12 55.2932H20.2467V59.1665H24.12V55.2932Z" fill="black"/>
<path d="M24.12 59.1665H20.2467V63.0398H24.12V59.1665Z" fill="black"/>
<path d="M24.12 74.6598H20.2467V78.5331H24.12V74.6598Z" fill="black"/>
<path d="M24.12 82.4064H20.2467V86.2797H24.12V82.4064Z" fill="black"/>
<path d="M24.12 90.153H20.2467V94.0263H24.12V90.153Z" fill="black"/>
<path d="M24.12 94.0263H20.2467V97.8996H24.12V94.0263Z" fill="black"/>
<path d="M24.12 97.8996H20.2467V101.773H24.12V97.8996Z" fill="black"/>
<path d="M24.12 105.646H20.2467V109.52H24.12V105.646Z" fill="black"/>
<path d="M27.9933 12.6868H24.12V16.5601H27.9933V12.6868Z" fill="black"/>
<path d="M27.9933 20.4334H24.12V24.3067H27.9933V20.4334Z" fill="black"/>
<path d="M27.9933 24.3067H24.12V28.18H27.9933V24.3067Z" fill="black"/>
<path d="M27.9933 28.18H24.12V32.0533H27.9933V28.18Z" fill="black"/>
<path d="M27.9933 35.9267H24.12V39.8H27.9933V35.9267Z" fill="black"/>
<path d="M27.9933 43.6733H24.12V47.5466H27.9933V43.6733Z" fill="black"/>
<path d="M27.9933 51.4199H24.12V55.2932H27.9933V51.4199Z" fill="black"/>
<path d="M27.9933 55.2932H24.12V59.1665H27.9933V55.2932Z" fill="black"/>
<path d="M27.9933 59.1665H24.12V63.0398H27.9933V59.1665Z" fill="black"/>
<path d="M27.9933 63.0398H24.12V66.9131H27.9933V63.0398Z" fill="black"/>
<path d="M27.9933 82.4064H24.12V86.2797H27.9933V82.4064Z" fill="black"/>
<path d="M27.9933 90.153H24.12V94.0263H27.9933V90.153Z" fill="black"/>
<path d="M27.9933 94.0263H24.12V97.8996H27.9933V94.0263Z" fill="black"/>
<path d="M27.9933 97.8996H24.12V101.773H27.9933V97.8996Z" fill="black"/>
<path d="M27.9933 105.646H24.12V109.52H27.9933V105.646Z" fill="black"/>
<path d="M31.8666 12.6868H27.9933V16.5601H31.8666V12.6868Z" fill="black"/>
<path d="M31.8666 20.4334H27.9933V24.3067H31.8666V20.4334Z" fill="black"/>
<path d="M31.8666 24.3067H27.9933V28.18H31.8666V24.3067Z" fill="black"/>
<path d="M31.8666 28.18H27.9933V32.0533H31.8666V28.18Z" fill="black"/>
<path d="M31.8666 35.9267H27.9933V39.8H31.8666V35.9267Z" fill="black"/>
<path d="M31.8666 47.5466H27.9933V51.4199H31.8666V47.5466Z" fill="black"/>
<path d="M31.8666 63.0398H27.9933V66.9131H31.8666V63.0398Z" fill="black"/>
<path d="M31.8666 70.7865H27.9933V74.6598H31.8666V70.7865Z" fill="black"/>
<path d="M31.8666 82.4064H27.9933V86.2797H31.8666V82.4064Z" fill="black"/>
<path d="M31.8666 90.153H27.9933V94.0263H31.8666V90.153Z" fill="black"/>
<path d="M31.8666 94.0263H27.9933V97.8996H31.8666V94.0263Z" fill="black"/>
<path d="M31.8666 97.8996H27.9933V101.773H31.8666V97.8996Z" fill="black"/>
<path d="M31.8666 105.646H27.9933V109.52H31.8666V105.646Z" fill="black"/>
<path d="M35.7398 12.6868H31.8665V16.5601H35.7398V12.6868Z" fill="black"/>
<path d="M35.7398 35.9267H31.8665V39.8H35.7398V35.9267Z" fill="black"/>
<path d="M35.7398 47.5466H31.8665V51.4199H35.7398V47.5466Z" fill="black"/>
<path d="M35.7398 59.1665H31.8665V63.0398H35.7398V59.1665Z" fill="black"/>
<path d="M35.7398 66.9131H31.8665V70.7864H35.7398V66.9131Z" fill="black"/>
<path d="M35.7398 70.7865H31.8665V74.6598H35.7398V70.7865Z" fill="black"/>
<path d="M35.7398 82.4064H31.8665V86.2797H35.7398V82.4064Z" fill="black"/>
<path d="M35.7398 105.646H31.8665V109.52H35.7398V105.646Z" fill="black"/>
<path d="M39.6133 12.6868H35.74V16.5601H39.6133V12.6868Z" fill="black"/>
<path d="M39.6133 16.5601H35.74V20.4334H39.6133V16.5601Z" fill="black"/>
<path d="M39.6133 20.4334H35.74V24.3067H39.6133V20.4334Z" fill="black"/>
<path d="M39.6133 24.3067H35.74V28.18H39.6133V24.3067Z" fill="black"/>
<path d="M39.6133 28.18H35.74V32.0533H39.6133V28.18Z" fill="black"/>
<path d="M39.6133 32.0534H35.74V35.9267H39.6133V32.0534Z" fill="black"/>
<path d="M39.6133 35.9267H35.74V39.8H39.6133V35.9267Z" fill="black"/>
<path d="M39.6133 43.6733H35.74V47.5466H39.6133V43.6733Z" fill="black"/>
<path d="M39.6133 51.4199H35.74V55.2932H39.6133V51.4199Z" fill="black"/>
<path d="M39.6133 59.1665H35.74V63.0398H39.6133V59.1665Z" fill="black"/>
<path d="M39.6133 66.9131H35.74V70.7864H39.6133V66.9131Z" fill="black"/>
<path d="M39.6133 74.6598H35.74V78.5331H39.6133V74.6598Z" fill="black"/>
<path d="M39.6133 82.4064H35.74V86.2797H39.6133V82.4064Z" fill="black"/>
<path d="M39.6133 86.2797H35.74V90.153H39.6133V86.2797Z" fill="black"/>
<path d="M39.6133 90.153H35.74V94.0263H39.6133V90.153Z" fill="black"/>
<path d="M39.6133 94.0263H35.74V97.8996H39.6133V94.0263Z" fill="black"/>
<path d="M39.6133 97.8996H35.74V101.773H39.6133V97.8996Z" fill="black"/>
<path d="M39.6133 101.773H35.74V105.646H39.6133V101.773Z" fill="black"/>
<path d="M39.6133 105.646H35.74V109.52H39.6133V105.646Z" fill="black"/>
<path d="M43.4865 43.6733H39.6132V47.5466H43.4865V43.6733Z" fill="black"/>
<path d="M43.4865 47.5466H39.6132V51.4199H43.4865V47.5466Z" fill="black"/>
<path d="M43.4865 51.4199H39.6132V55.2932H43.4865V51.4199Z" fill="black"/>
<path d="M43.4865 55.2932H39.6132V59.1665H43.4865V55.2932Z" fill="black"/>
<path d="M43.4865 59.1665H39.6132V63.0398H43.4865V59.1665Z" fill="black"/>
<path d="M43.4865 74.6598H39.6132V78.5331H43.4865V74.6598Z" fill="black"/>
<path d="M47.3598 16.5601H43.4865V20.4334H47.3598V16.5601Z" fill="black"/>
<path d="M47.3598 20.4334H43.4865V24.3067H47.3598V20.4334Z" fill="black"/>
<path d="M47.3598 28.18H43.4865V32.0533H47.3598V28.18Z" fill="black"/>
<path d="M47.3598 32.0534H43.4865V35.9267H47.3598V32.0534Z" fill="black"/>
<path d="M47.3598 35.9267H43.4865V39.8H47.3598V35.9267Z" fill="black"/>
<path d="M47.3598 39.8H43.4865V43.6733H47.3598V39.8Z" fill="black"/>
<path d="M47.3598 51.4199H43.4865V55.2932H47.3598V51.4199Z" fill="black"/>
<path d="M47.3598 59.1665H43.4865V63.0398H47.3598V59.1665Z" fill="black"/>
<path d="M47.3598 63.0398H43.4865V66.9131H47.3598V63.0398Z" fill="black"/>
<path d="M47.3598 66.9131H43.4865V70.7864H47.3598V66.9131Z" fill="black"/>
<path d="M47.3598 70.7865H43.4865V74.6598H47.3598V70.7865Z" fill="black"/>
<path d="M47.3598 78.5331H43.4865V82.4064H47.3598V78.5331Z" fill="black"/>
<path d="M47.3598 82.4064H43.4865V86.2797H47.3598V82.4064Z" fill="black"/>
<path d="M47.3598 94.0263H43.4865V97.8996H47.3598V94.0263Z" fill="black"/>
<path d="M47.3598 101.773H43.4865V105.646H47.3598V101.773Z" fill="black"/>
<path d="M47.3598 105.646H43.4865V109.52H47.3598V105.646Z" fill="black"/>
<path d="M51.2331 16.5601H47.3597V20.4334H51.2331V16.5601Z" fill="black"/>
<path d="M51.2331 24.3067H47.3597V28.18H51.2331V24.3067Z" fill="black"/>
<path d="M51.2331 28.18H47.3597V32.0533H51.2331V28.18Z" fill="black"/>
<path d="M51.2331 47.5466H47.3597V51.4199H51.2331V47.5466Z" fill="black"/>
<path d="M51.2331 55.2932H47.3597V59.1665H51.2331V55.2932Z" fill="black"/>
<path d="M51.2331 74.6598H47.3597V78.5331H51.2331V74.6598Z" fill="black"/>
<path d="M51.2331 78.5331H47.3597V82.4064H51.2331V78.5331Z" fill="black"/>
<path d="M51.2331 94.0263H47.3597V97.8996H51.2331V94.0263Z" fill="black"/>
<path d="M51.2331 101.773H47.3597V105.646H51.2331V101.773Z" fill="black"/>
<path d="M51.2331 105.646H47.3597V109.52H51.2331V105.646Z" fill="black"/>
<path d="M55.1066 12.6868H51.2333V16.5601H55.1066V12.6868Z" fill="black"/>
<path d="M55.1066 16.5601H51.2333V20.4334H55.1066V16.5601Z" fill="black"/>
<path d="M55.1066 28.18H51.2333V32.0533H55.1066V28.18Z" fill="black"/>
<path d="M55.1066 32.0534H51.2333V35.9267H55.1066V32.0534Z" fill="black"/>
<path d="M55.1066 35.9267H51.2333V39.8H55.1066V35.9267Z" fill="black"/>
<path d="M55.1066 39.8H51.2333V43.6733H55.1066V39.8Z" fill="black"/>
<path d="M55.1066 55.2932H51.2333V59.1665H55.1066V55.2932Z" fill="black"/>
<path d="M55.1066 59.1665H51.2333V63.0398H55.1066V59.1665Z" fill="black"/>
<path d="M55.1066 66.9131H51.2333V70.7864H55.1066V66.9131Z" fill="black"/>
<path d="M55.1066 74.6598H51.2333V78.5331H55.1066V74.6598Z" fill="black"/>
<path d="M55.1066 86.2797H51.2333V90.153H55.1066V86.2797Z" fill="black"/>
<path d="M55.1066 90.153H51.2333V94.0263H55.1066V90.153Z" fill="black"/>
<path d="M55.1066 101.773H51.2333V105.646H55.1066V101.773Z" fill="black"/>
<path d="M55.1066 105.646H51.2333V109.52H55.1066V105.646Z" fill="black"/>
<path d="M58.9798 39.8H55.1064V43.6733H58.9798V39.8Z" fill="black"/>
<path d="M58.9798 43.6733H55.1064V47.5466H58.9798V43.6733Z" fill="black"/>
<path d="M58.9798 47.5466H55.1064V51.4199H58.9798V47.5466Z" fill="black"/>
<path d="M58.9798 51.4199H55.1064V55.2932H58.9798V51.4199Z" fill="black"/>
<path d="M58.9798 55.2932H55.1064V59.1665H58.9798V55.2932Z" fill="black"/>
<path d="M58.9798 59.1665H55.1064V63.0398H58.9798V59.1665Z" fill="black"/>
<path d="M58.9798 63.0398H55.1064V66.9131H58.9798V63.0398Z" fill="black"/>
<path d="M58.9798 66.9131H55.1064V70.7864H58.9798V66.9131Z" fill="black"/>
<path d="M58.9798 74.6598H55.1064V78.5331H58.9798V74.6598Z" fill="black"/>
<path d="M58.9798 78.5331H55.1064V82.4064H58.9798V78.5331Z" fill="black"/>
<path d="M58.9798 86.2797H55.1064V90.153H58.9798V86.2797Z" fill="black"/>
<path d="M58.9798 101.773H55.1064V105.646H58.9798V101.773Z" fill="black"/>
<path d="M58.9798 105.646H55.1064V109.52H58.9798V105.646Z" fill="black"/>
<path d="M62.853 24.3067H58.9797V28.18H62.853V24.3067Z" fill="black"/>
<path d="M62.853 28.18H58.9797V32.0533H62.853V28.18Z" fill="black"/>
<path d="M62.853 32.0534H58.9797V35.9267H62.853V32.0534Z" fill="black"/>
<path d="M62.853 35.9267H58.9797V39.8H62.853V35.9267Z" fill="black"/>
<path d="M62.853 43.6733H58.9797V47.5466H62.853V43.6733Z" fill="black"/>
<path d="M62.853 47.5466H58.9797V51.4199H62.853V47.5466Z" fill="black"/>
<path d="M62.853 51.4199H58.9797V55.2932H62.853V51.4199Z" fill="black"/>
<path d="M62.853 55.2932H58.9797V59.1665H62.853V55.2932Z" fill="black"/>
<path d="M62.853 59.1665H58.9797V63.0398H62.853V59.1665Z" fill="black"/>
<path d="M62.853 70.7865H58.9797V74.6598H62.853V70.7865Z" fill="black"/>
<path d="M62.853 74.6598H58.9797V78.5331H62.853V74.6598Z" fill="black"/>
<path d="M62.853 86.2797H58.9797V90.153H62.853V86.2797Z" fill="black"/>
<path d="M62.853 90.153H58.9797V94.0263H62.853V90.153Z" fill="black"/>
<path d="M62.853 94.0263H58.9797V97.8996H62.853V94.0263Z" fill="black"/>
<path d="M62.853 101.773H58.9797V105.646H62.853V101.773Z" fill="black"/>
<path d="M62.853 105.646H58.9797V109.52H62.853V105.646Z" fill="black"/>
<path d="M66.7265 28.18H62.8531V32.0533H66.7265V28.18Z" fill="black"/>
<path d="M66.7265 32.0534H62.8531V35.9267H66.7265V32.0534Z" fill="black"/>
<path d="M66.7265 43.6733H62.8531V47.5466H66.7265V43.6733Z" fill="black"/>
<path d="M66.7265 51.4199H62.8531V55.2932H66.7265V51.4199Z" fill="black"/>
<path d="M66.7265 55.2932H62.8531V59.1665H66.7265V55.2932Z" fill="black"/>
<path d="M66.7265 59.1665H62.8531V63.0398H66.7265V59.1665Z" fill="black"/>
<path d="M66.7265 70.7865H62.8531V74.6598H66.7265V70.7865Z" fill="black"/>
<path d="M66.7265 82.4064H62.8531V86.2797H66.7265V82.4064Z" fill="black"/>
<path d="M66.7265 90.153H62.8531V94.0263H66.7265V90.153Z" fill="black"/>
<path d="M66.7265 94.0263H62.8531V97.8996H66.7265V94.0263Z" fill="black"/>
<path d="M66.7265 101.773H62.8531V105.646H66.7265V101.773Z" fill="black"/>
<path d="M66.7265 105.646H62.8531V109.52H66.7265V105.646Z" fill="black"/>
<path d="M70.5998 12.6868H66.7264V16.5601H70.5998V12.6868Z" fill="black"/>
<path d="M70.5998 20.4334H66.7264V24.3067H70.5998V20.4334Z" fill="black"/>
<path d="M70.5998 24.3067H66.7264V28.18H70.5998V24.3067Z" fill="black"/>
<path d="M70.5998 32.0534H66.7264V35.9267H70.5998V32.0534Z" fill="black"/>
<path d="M70.5998 35.9267H66.7264V39.8H70.5998V35.9267Z" fill="black"/>
<path d="M70.5998 43.6733H66.7264V47.5466H70.5998V43.6733Z" fill="black"/>
<path d="M70.5998 55.2932H66.7264V59.1665H70.5998V55.2932Z" fill="black"/>
<path d="M70.5998 66.9131H66.7264V70.7864H70.5998V66.9131Z" fill="black"/>
<path d="M70.5998 70.7865H66.7264V74.6598H70.5998V70.7865Z" fill="black"/>
<path d="M70.5998 74.6598H66.7264V78.5331H70.5998V74.6598Z" fill="black"/>
<path d="M70.5998 78.5331H66.7264V82.4064H70.5998V78.5331Z" fill="black"/>
<path d="M70.5998 90.153H66.7264V94.0263H70.5998V90.153Z" fill="black"/>
<path d="M70.5998 97.8996H66.7264V101.773H70.5998V97.8996Z" fill="black"/>
<path d="M74.473 12.6868H70.5997V16.5601H74.473V12.6868Z" fill="black"/>
<path d="M74.473 16.5601H70.5997V20.4334H74.473V16.5601Z" fill="black"/>
<path d="M74.473 28.18H70.5997V32.0533H74.473V28.18Z" fill="black"/>
<path d="M74.473 32.0534H70.5997V35.9267H74.473V32.0534Z" fill="black"/>
<path d="M74.473 55.2932H70.5997V59.1665H74.473V55.2932Z" fill="black"/>
<path d="M74.473 70.7865H70.5997V74.6598H74.473V70.7865Z" fill="black"/>
<path d="M74.473 78.5331H70.5997V82.4064H74.473V78.5331Z" fill="black"/>
<path d="M74.473 82.4064H70.5997V86.2797H74.473V82.4064Z" fill="black"/>
<path d="M74.473 94.0263H70.5997V97.8996H74.473V94.0263Z" fill="black"/>
<path d="M74.473 101.773H70.5997V105.646H74.473V101.773Z" fill="black"/>
<path d="M74.473 105.646H70.5997V109.52H74.473V105.646Z" fill="black"/>
<path d="M78.3463 28.18H74.473V32.0533H78.3463V28.18Z" fill="black"/>
<path d="M78.3463 32.0534H74.473V35.9267H78.3463V32.0534Z" fill="black"/>
<path d="M78.3463 35.9267H74.473V39.8H78.3463V35.9267Z" fill="black"/>
<path d="M78.3463 39.8H74.473V43.6733H78.3463V39.8Z" fill="black"/>
<path d="M78.3463 47.5466H74.473V51.4199H78.3463V47.5466Z" fill="black"/>
<path d="M78.3463 55.2932H74.473V59.1665H78.3463V55.2932Z" fill="black"/>
<path d="M78.3463 59.1665H74.473V63.0398H78.3463V59.1665Z" fill="black"/>
<path d="M78.3463 70.7865H74.473V74.6598H78.3463V70.7865Z" fill="black"/>
<path d="M78.3463 74.6598H74.473V78.5331H78.3463V74.6598Z" fill="black"/>
<path d="M78.3463 78.5331H74.473V82.4064H78.3463V78.5331Z" fill="black"/>
<path d="M78.3463 82.4064H74.473V86.2797H78.3463V82.4064Z" fill="black"/>
<path d="M78.3463 86.2797H74.473V90.153H78.3463V86.2797Z" fill="black"/>
<path d="M78.3463 90.153H74.473V94.0263H78.3463V90.153Z" fill="black"/>
<path d="M78.3463 94.0263H74.473V97.8996H78.3463V94.0263Z" fill="black"/>
<path d="M78.3463 97.8996H74.473V101.773H78.3463V97.8996Z" fill="black"/>
<path d="M78.3463 101.773H74.473V105.646H78.3463V101.773Z" fill="black"/>
<path d="M78.3463 105.646H74.473V109.52H78.3463V105.646Z" fill="black"/>
<path d="M82.2197 51.4199H78.3464V55.2932H82.2197V51.4199Z" fill="black"/>
<path d="M82.2197 55.2932H78.3464V59.1665H82.2197V55.2932Z" fill="black"/>
<path d="M82.2197 59.1665H78.3464V63.0398H82.2197V59.1665Z" fill="black"/>
<path d="M82.2197 74.6598H78.3464V78.5331H82.2197V74.6598Z" fill="black"/>
<path d="M82.2197 90.153H78.3464V94.0263H82.2197V90.153Z" fill="black"/>
<path d="M82.2197 94.0263H78.3464V97.8996H82.2197V94.0263Z" fill="black"/>
<path d="M82.2197 101.773H78.3464V105.646H82.2197V101.773Z" fill="black"/>
<path d="M86.093 12.6868H82.2197V16.5601H86.093V12.6868Z" fill="black"/>
<path d="M86.093 16.5601H82.2197V20.4334H86.093V16.5601Z" fill="black"/>
<path d="M86.093 20.4334H82.2197V24.3067H86.093V20.4334Z" fill="black"/>
<path d="M86.093 24.3067H82.2197V28.18H86.093V24.3067Z" fill="black"/>
<path d="M86.093 28.18H82.2197V32.0533H86.093V28.18Z" fill="black"/>
<path d="M86.093 32.0534H82.2197V35.9267H86.093V32.0534Z" fill="black"/>
<path d="M86.093 35.9267H82.2197V39.8H86.093V35.9267Z" fill="black"/>
<path d="M86.093 43.6733H82.2197V47.5466H86.093V43.6733Z" fill="black"/>
<path d="M86.093 47.5466H82.2197V51.4199H86.093V47.5466Z" fill="black"/>
<path d="M86.093 51.4199H82.2197V55.2932H86.093V51.4199Z" fill="black"/>
<path d="M86.093 55.2932H82.2197V59.1665H86.093V55.2932Z" fill="black"/>
<path d="M86.093 59.1665H82.2197V63.0398H86.093V59.1665Z" fill="black"/>
<path d="M86.093 63.0398H82.2197V66.9131H86.093V63.0398Z" fill="black"/>
<path d="M86.093 66.9131H82.2197V70.7864H86.093V66.9131Z" fill="black"/>
<path d="M86.093 70.7865H82.2197V74.6598H86.093V70.7865Z" fill="black"/>
<path d="M86.093 74.6598H82.2197V78.5331H86.093V74.6598Z" fill="black"/>
<path d="M86.093 82.4064H82.2197V86.2797H86.093V82.4064Z" fill="black"/>
<path d="M86.093 90.153H82.2197V94.0263H86.093V90.153Z" fill="black"/>
<path d="M86.093 101.773H82.2197V105.646H86.093V101.773Z" fill="black"/>
<path d="M89.9662 12.6868H86.0929V16.5601H89.9662V12.6868Z" fill="black"/>
<path d="M89.9662 35.9267H86.0929V39.8H89.9662V35.9267Z" fill="black"/>
<path d="M89.9662 43.6733H86.0929V47.5466H89.9662V43.6733Z" fill="black"/>
<path d="M89.9662 59.1665H86.0929V63.0398H89.9662V59.1665Z" fill="black"/>
<path d="M89.9662 63.0398H86.0929V66.9131H89.9662V63.0398Z" fill="black"/>
<path d="M89.9662 66.9131H86.0929V70.7864H89.9662V66.9131Z" fill="black"/>
<path d="M89.9662 74.6598H86.0929V78.5331H89.9662V74.6598Z" fill="black"/>
<path d="M89.9662 90.153H86.0929V94.0263H89.9662V90.153Z" fill="black"/>
<path d="M89.9662 94.0263H86.0929V97.8996H89.9662V94.0263Z" fill="black"/>
<path d="M89.9662 97.8996H86.0929V101.773H89.9662V97.8996Z" fill="black"/>
<path d="M89.9662 105.646H86.0929V109.52H89.9662V105.646Z" fill="black"/>
<path d="M93.8397 12.6868H89.9664V16.5601H93.8397V12.6868Z" fill="black"/>
<path d="M93.8397 20.4334H89.9664V24.3067H93.8397V20.4334Z" fill="black"/>
<path d="M93.8397 24.3067H89.9664V28.18H93.8397V24.3067Z" fill="black"/>
<path d="M93.8397 28.18H89.9664V32.0533H93.8397V28.18Z" fill="black"/>
<path d="M93.8397 35.9267H89.9664V39.8H93.8397V35.9267Z" fill="black"/>
<path d="M93.8397 43.6733H89.9664V47.5466H93.8397V43.6733Z" fill="black"/>
<path d="M93.8397 55.2932H89.9664V59.1665H93.8397V55.2932Z" fill="black"/>
<path d="M93.8397 66.9131H89.9664V70.7864H93.8397V66.9131Z" fill="black"/>
<path d="M93.8397 70.7865H89.9664V74.6598H93.8397V70.7865Z" fill="black"/>
<path d="M93.8397 74.6598H89.9664V78.5331H93.8397V74.6598Z" fill="black"/>
<path d="M93.8397 78.5331H89.9664V82.4064H93.8397V78.5331Z" fill="black"/>
<path d="M93.8397 82.4064H89.9664V86.2797H93.8397V82.4064Z" fill="black"/>
<path d="M93.8397 86.2797H89.9664V90.153H93.8397V86.2797Z" fill="black"/>
<path d="M93.8397 90.153H89.9664V94.0263H93.8397V90.153Z" fill="black"/>
<path d="M93.8397 94.0263H89.9664V97.8996H93.8397V94.0263Z" fill="black"/>
<path d="M93.8397 97.8996H89.9664V101.773H93.8397V97.8996Z" fill="black"/>
<path d="M97.7129 12.6868H93.8396V16.5601H97.7129V12.6868Z" fill="black"/>
<path d="M97.7129 20.4334H93.8396V24.3067H97.7129V20.4334Z" fill="black"/>
<path d="M97.7129 24.3067H93.8396V28.18H97.7129V24.3067Z" fill="black"/>
<path d="M97.7129 28.18H93.8396V32.0533H97.7129V28.18Z" fill="black"/>
<path d="M97.7129 35.9267H93.8396V39.8H97.7129V35.9267Z" fill="black"/>
<path d="M97.7129 59.1665H93.8396V63.0398H97.7129V59.1665Z" fill="black"/>
<path d="M97.7129 63.0398H93.8396V66.9131H97.7129V63.0398Z" fill="black"/>
<path d="M97.7129 74.6598H93.8396V78.5331H97.7129V74.6598Z" fill="black"/>
<path d="M97.7129 78.5331H93.8396V82.4064H97.7129V78.5331Z" fill="black"/>
<path d="M97.7129 82.4064H93.8396V86.2797H97.7129V82.4064Z" fill="black"/>
<path d="M97.7129 86.2797H93.8396V90.153H97.7129V86.2797Z" fill="black"/>
<path d="M97.7129 90.153H93.8396V94.0263H97.7129V90.153Z" fill="black"/>
<path d="M97.7129 94.0263H93.8396V97.8996H97.7129V94.0263Z" fill="black"/>
<path d="M97.7129 101.773H93.8396V105.646H97.7129V101.773Z" fill="black"/>
<path d="M101.586 12.6868H97.713V16.5601H101.586V12.6868Z" fill="black"/>
<path d="M101.586 20.4334H97.713V24.3067H101.586V20.4334Z" fill="black"/>
<path d="M101.586 24.3067H97.713V28.18H101.586V24.3067Z" fill="black"/>
<path d="M101.586 28.18H97.713V32.0533H101.586V28.18Z" fill="black"/>
<path d="M101.586 35.9267H97.713V39.8H101.586V35.9267Z" fill="black"/>
<path d="M101.586 43.6733H97.713V47.5466H101.586V43.6733Z" fill="black"/>
<path d="M101.586 63.0398H97.713V66.9131H101.586V63.0398Z" fill="black"/>
<path d="M101.586 66.9131H97.713V70.7864H101.586V66.9131Z" fill="black"/>
<path d="M101.586 74.6598H97.713V78.5331H101.586V74.6598Z" fill="black"/>
<path d="M101.586 86.2797H97.713V90.153H101.586V86.2797Z" fill="black"/>
<path d="M101.586 94.0263H97.713V97.8996H101.586V94.0263Z" fill="black"/>
<path d="M101.586 97.8996H97.713V101.773H101.586V97.8996Z" fill="black"/>
<path d="M105.459 12.6868H101.586V16.5601H105.459V12.6868Z" fill="black"/>
<path d="M105.459 35.9267H101.586V39.8H105.459V35.9267Z" fill="black"/>
<path d="M105.459 43.6733H101.586V47.5466H105.459V43.6733Z" fill="black"/>
<path d="M105.459 51.4199H101.586V55.2932H105.459V51.4199Z" fill="black"/>
<path d="M105.459 59.1665H101.586V63.0398H105.459V59.1665Z" fill="black"/>
<path d="M105.459 70.7865H101.586V74.6598H105.459V70.7865Z" fill="black"/>
<path d="M105.459 82.4064H101.586V86.2797H105.459V82.4064Z" fill="black"/>
<path d="M105.459 86.2797H101.586V90.153H105.459V86.2797Z" fill="black"/>
<path d="M105.459 90.153H101.586V94.0263H105.459V90.153Z" fill="black"/>
<path d="M105.459 105.646H101.586V109.52H105.459V105.646Z" fill="black"/>
<path d="M109.333 12.6868H105.46V16.5601H109.333V12.6868Z" fill="black"/>
<path d="M109.333 16.5601H105.46V20.4334H109.333V16.5601Z" fill="black"/>
<path d="M109.333 20.4334H105.46V24.3067H109.333V20.4334Z" fill="black"/>
<path d="M109.333 24.3067H105.46V28.18H109.333V24.3067Z" fill="black"/>
<path d="M109.333 28.18H105.46V32.0533H109.333V28.18Z" fill="black"/>
<path d="M109.333 32.0534H105.46V35.9267H109.333V32.0534Z" fill="black"/>
<path d="M109.333 35.9267H105.46V39.8H109.333V35.9267Z" fill="black"/>
<path d="M109.333 47.5466H105.46V51.4199H109.333V47.5466Z" fill="black"/>
<path d="M109.333 51.4199H105.46V55.2932H109.333V51.4199Z" fill="black"/>
<path d="M109.333 59.1665H105.46V63.0398H109.333V59.1665Z" fill="black"/>
<path d="M109.333 63.0398H105.46V66.9131H109.333V63.0398Z" fill="black"/>
<path d="M109.333 66.9131H105.46V70.7864H109.333V66.9131Z" fill="black"/>
<path d="M109.333 78.5331H105.46V82.4064H109.333V78.5331Z" fill="black"/>
<path d="M109.333 82.4064H105.46V86.2797H109.333V82.4064Z" fill="black"/>
<path d="M109.333 86.2797H105.46V90.153H109.333V86.2797Z" fill="black"/>
<path d="M109.333 97.8996H105.46V101.773H109.333V97.8996Z" fill="black"/>
<path d="M109.333 105.646H105.46V109.52H109.333V105.646Z" fill="black"/>
</svg>
